<?xml version="1.0" standalone="no"?>
<!DOCTYPE svg PUBLIC "-//W3C//DTD SVG 1.1//EN" "http://www.w3.org/Graphics/SVG/1.1/DTD/svg11.dtd" >
<svg xmlns="http://www.w3.org/2000/svg">
<metadata>Generated by IcoMoon</metadata>
<defs>
<font id="fontCinvestav" horiz-adv-x="1024">
<font-face units-per-em="1024" ascent="960" descent="-64" />
<missing-glyph horiz-adv-x="1024" />
<glyph unicode="&#x20;" horiz-adv-x="512" d="" />
<glyph unicode="&#xe900;" glyph-name="current" d="M461.036 736.952c-36.844-6.799-79.442-24.3-112.374-46.52-21.955-14.899-59.064-51.487-74.742-74.22-25.61-37.11-45.998-89.641-50.964-131.973l-1.567-15.155h-211.149v-41.82h211.149l1.567-14.899c4.966-42.598 25.354-95.119 50.964-132.229 15.944-22.999 52.787-59.32 75.786-75.008 23.777-15.944 60.365-32.666 89.119-40.509 30.054-8.366 91.986-11.756 121.784-6.789 126.751 21.688 226.58 122.307 244.613 246.958l3.133 22.477h205.414v41.82h-205.425l-3.133 22.477c-17.766 121.784-114.463 222.136-236.503 245.391-25.088 4.7-81.797 4.7-107.674 0zM565.576 694.876c124.129-23.777 214.036-145.306 199.916-270.746-7.055-62.976-30.31-111.329-74.22-154.972-47.821-47.821-108.196-72.387-176.66-72.387-69.519 0-128.84 24.566-177.971 73.431-48.865 49.132-73.165 108.196-73.165 177.971 0 68.997 24.31 128.317 72.131 176.66 61.409 62.198 142.162 86.764 229.97 70.042zM451.891 460.718c-24.832-65.065-47.043-122.307-48.865-126.751l-3.4-8.622h36.065l10.977 32.143c6.277 17.51 12.8 35.021 14.633 38.676l3.4 6.799h52.265l52.265 0.256 10.189-26.655c5.755-14.377 12.278-31.877 14.899-38.676l4.7-12.544h19.077c14.377 0 18.821 0.788 17.777 3.4-0.522 1.567-23.788 58.542-51.487 125.962l-50.432 122.829-36.588 1.567-45.476-118.385zM529.244 510.116c7.578-20.388 17.244-46.776 21.688-58.542l7.844-21.688h-85.719l8.1 21.688c15.155 40.509 30.833 86.764 30.833 91.464 0.010 10.977 4.71 1.833 17.254-32.922z" />
<glyph unicode="&#xe901;" glyph-name="reactive-power" d="M676.28 571.822c-13.496-4.332-24.453-10.189-34.13-18.34-7.639-6.369-9.165-6.625-26.491-5.089-23.429 2.038-53.238-2.038-80.486-10.947-20.378-6.881-22.159-7.137-34.386-3.82-20.378 5.601-49.664 7.127-72.591 3.82l-20.89-3.062-9.933 7.895c-16.814 13.24-31.836 18.596-57.303 19.866-49.408 2.294-93.471-18.34-114.36-53.996-14.51-24.719-20.623-63.939-16.804-108.513l1.014-14.008h-199.68v-64.952h141.363c77.681 0 141.363 0.256 141.363 0.768 0 0.256-2.806 10.957-6.113 23.429-24.207 89.917-17.070 138.557 21.637 148.5 28.017 7.127 29.798 6.369 19.866-7.639-28.518-39.997-12.216-127.355 26.491-141.875 41.011-15.534 76.923 31.068 79.462 102.902l1.014 25.467 27.505 1.536-3.82-17.316c-6.881-33.116 5.089-75.387 27.505-97.29 24.965-23.941 58.071-19.866 78.449 9.933 15.278 22.671 21.391 71.311 12.227 97.546-2.55 6.881-3.82 12.995-3.052 13.752 0.768 0.768 8.663 2.038 17.572 2.55l16.302 1.526 0.256-23.941c1.024-73.861 42.025-123.279 84.562-101.622 19.098 9.677 32.86 39.987 35.144 76.667 1.526 26.993-2.294 44.319-13.496 61.123l-8.663 12.483h10.701c15.534 0 27.505-6.881 34.642-20.122 5.345-9.677 6.369-14.776 6.113-34.386 0-12.739-1.27-30.054-3.062-38.461-3.052-14.264-19.354-81.244-22.159-90.931-1.27-4.332 6.625-4.588 140.083-4.588h141.629v63.672l-14.52 0.256c-8.151 0-52.982 0.256-99.338 0.256-46.612 0.256-84.818 1.024-84.818 1.782 0 0.768 1.782 10.701 3.82 21.903 4.588 26.235 4.844 72.335 0.256 89.651-7.895 29.286-25.211 51.702-49.408 64.184-23.429 11.971-70.298 16.814-93.471 9.431zM530.596 448.287c8.151-9.677 10.445-22.415 6.369-34.642-6.369-19.108-21.903-18.842-30.566 0.512-11.971 27.249 7.127 54.508 24.197 34.13zM684.431 445.737c11.971-17.828 4.588-47.626-11.459-45.588-9.421 1.024-16.558 12.227-17.828 28.017-0.768 11.213 0 14.776 4.588 20.634 7.639 9.677 17.060 8.407 24.699-3.062zM381.082 440.904c10.189-6.625 11.715-30.812 2.806-44.063-11.715-17.572-29.798-8.919-29.798 14.776 0 21.637 14.51 37.683 26.993 29.286z" />
<glyph unicode="&#xe902;" d="M964.722-64h-905.444c-13.090 0-23.704 10.612-23.704 23.704s10.614 23.704 23.704 23.704h905.444c13.090 0 23.704-10.612 23.704-23.704s-10.612-23.704-23.704-23.704z" />
<glyph unicode="&#xe903;" d="M59.282 525.678h237.084v-472.392h-237.084v472.392z" />
<glyph unicode="&#xe904;" d="M393.458 742.85h237.084v-689.564h-237.084v689.564z" />
<glyph unicode="&#xe905;" d="M727.656 960h237.084v-906.714h-237.084v906.714z" />
<glyph unicode="&#xe906;" glyph-name="Power" d="M1024 604.903v132.125h-99.095v99.102h-165.161v-99.095h-495.487v99.095h-165.161v-99.095h-99.095v-132.128h66.066v-528.516h-66.066v-132.128h1024v132.128h-66.066v528.513h66.066zM990.967 43.354v-66.066h-957.934v66.066h957.934zM924.901 76.386h-825.806v528.516h825.806v-528.516zM957.931 637.932l-924.898 0.003v66.062h99.095v99.099h99.095v-99.099h561.549v99.099h99.095v-99.099h99.095v-66.066h-33.033zM313.806 803.097h396.388v-33.033h-396.388v33.033zM403.703 109.881l82.1 82.118h406.065v33.033h-373.032l165.161 165.161h-152.113l57.808 66.066h302.18v33.033h-273.274l28.902 33.033h-178.736l-16.516-33.033h-320.118v-33.033h303.598l-82.582-165.161h118.504l-25.715-68.574v2.511h-313.806v-33.033h302.36l-30.785-82.121zM406.596 324.13l82.582 165.161h85.52l-115.612-132.128h145.176l-116.090-116.077 31.15 83.044h-112.726zM132.128 918.705h99.095v-33.033h-99.095v33.033zM825.806 852.643h33.033v33.029h33.033v33.033h-33.033v33.036h-33.033v-33.036h-33.033v-33.033h33.033zM132.128 571.87h33.033v-33.033h-33.033v33.033zM198.194 571.87h33.033v-33.033h-33.033v33.033zM132.128 142.452h33.033v-33.033h-33.033v33.033zM858.839 571.87h33.033v-33.033h-33.033v33.033zM792.773 571.87h33.033v-33.033h-33.033v33.033z" />
<glyph unicode="&#xe907;" glyph-name="notification" d="M891.536 283.719l-21.162 182.674c-1.167 155.212-103.549 292.001-248.988 338.664v45.571c0 60.298-49.058 109.371-109.371 109.371s-109.386-49.058-109.386-109.371v-45.571c-145.424-46.664-247.821-183.453-248.988-338.664l-21.147-182.629c-28.615-22.464-45.571-56.631-45.571-94.046v-7.169c0-89.242 87.311-89.242 120.177-89.242h120.685c13.993-89.062 87.925-157.307 177.002-157.307s163.009 68.245 177.002 157.307h135.083c32.865 0 120.192 0 120.192 89.242v7.169c0.030 37.385-16.926 71.522-45.526 94.001zM504.816 25.796c-34.691 0-64.862 21.581-79.813 53.099h159.612c-14.936-31.518-45.107-53.099-79.798-53.099zM847.297 184.629c-6.061-1.018-16.238-1.541-30.396-1.541h-609.787c-14.158 0-24.32 0.509-30.381 1.541v5.073c0 13.918 8.995 23.197 17.405 27.238l22.284 10.731 26.744 230.865 0.299 5.163c0 126.477 89.706 237.031 213.295 262.877l35.709 7.468v116.57c0 10.79 8.785 19.575 19.59 19.575 10.79 0 19.575-8.77 19.575-19.575v-116.555l35.709-7.468c123.589-25.846 213.295-136.415 213.295-262.877l27.043-236.043 22.269-10.746c8.411-4.056 17.39-13.335 17.39-27.208v-5.088h-0.045z" />
<glyph unicode="&#xe908;" glyph-name="clock-white" d="M512 960c-281.6 0-512-230.4-512-512s230.4-512 512-512 512 230.4 512 512-230.4 512-512 512zM512 38.4c-225.28 0-409.6 184.32-409.6 409.6s184.32 409.6 409.6 409.6 409.6-184.32 409.6-409.6-184.32-409.6-409.6-409.6zM537.6 704h-76.8v-307.2l266.24-163.84 40.96 66.56-230.4 138.24z" />
<glyph unicode="&#xe909;" glyph-name="current2" d="M512 960c-282.313 0-512-229.681-512-512s229.687-512 512-512 512 229.681 512 512-229.687 512-512 512zM512 12.46c-240.162 0-435.54 195.383-435.54 435.54s195.378 435.54 435.54 435.54 435.54-195.383 435.54-435.54-195.378-435.54-435.54-435.54zM545.113 641.215c-6.832 11.83-19.454 19.115-33.113 19.115s-26.28-7.286-33.113-19.115l-188.42-326.354c-10.557-18.285-4.287-41.665 13.998-52.222 18.29-10.568 41.671-4.298 52.228 13.992l61.485 106.498h187.644l61.485-106.498c7.084-12.266 19.929-19.121 33.146-19.121 6.488 0 13.058 1.649 19.077 5.128 18.285 10.557 24.549 33.937 13.998 52.222l-188.415 326.354zM462.323 459.589l49.677 86.051 49.677-86.051h-99.355z" />
<glyph unicode="&#xe90a;" glyph-name="delete" d="M989.385 758.304l-310.266-310.298 310.266-310.283c46.15-46.168 46.15-120.954 0-167.122-23.059-23.059-53.291-34.597-83.508-34.597-30.267 0-60.502 11.521-83.544 34.597l-310.333 310.318-310.31-310.316c-23.056-23.059-53.291-34.597-83.535-34.597-30.235 0-60.449 11.521-83.526 34.597-46.15 46.148-46.15 120.937 0 167.122l310.257 310.283-310.274 310.295c-46.15 46.15-46.15 120.954 0 167.105 46.142 46.115 120.901 46.115 167.061 0l310.324-310.298 310.301 310.298c46.168 46.115 120.937 46.115 167.069 0 46.168-46.15 46.168-120.954 0.018-167.105z" />
<glyph unicode="&#xe90b;" glyph-name="current3" d="M228.901 765.576c-19.469 0-35.216-15.769-35.216-35.216 0-19.449 15.749-35.216 35.216-35.216 19.464 0 35.213 15.766 35.213 35.216 0 19.447-15.749 35.216-35.213 35.216zM228.901 640.122c-19.469 0-35.216-15.769-35.216-35.216 0-19.449 15.749-35.216 35.216-35.216 19.464 0 35.213 15.766 35.213 35.216 0 19.447-15.749 35.216-35.213 35.216zM651.488 765.576c-19.469 0-35.216-15.769-35.216-35.216 0-19.449 15.749-35.216 35.216-35.216 19.464 0 35.213 15.766 35.213 35.216 0 19.447-15.751 35.216-35.213 35.216zM651.488 640.122c-19.469 0-35.216-15.769-35.216-35.216 0-19.449 15.749-35.216 35.216-35.216 19.464 0 35.213 15.766 35.213 35.216 0 19.447-15.751 35.216-35.213 35.216zM966.637 645.503c-24.28 24.246-54.062 40.513-86.247 49.417v126.35c0 30.318-24.593 54.887-54.889 54.887h-770.611c-30.3 0-54.889-24.569-54.889-54.887v-307.242c0-30.331 24.589-54.904 54.889-54.904h770.611c30.296 0 54.889 24.574 54.889 54.904v106.644c13.345-6.139 25.757-14.305 36.45-24.982 23.697-23.697 36.731-55.198 36.731-88.712v-168.013c0-69.16-56.264-125.437-125.454-125.437h-66.753c-13.722 85.598-77.997 123.255-155.547 123.255h-62.9c-24.209 0-43.848-19.62-43.848-43.848v-35.388h-117.683c-14.584 0-26.411-11.829-26.411-26.411 0-14.584 11.827-26.411 26.411-26.411h117.683v-52.823h-117.683c-14.584 0-26.411-11.829-26.411-26.411 0-14.584 11.827-26.413 26.411-26.413h117.683v-35.388c0-24.228 19.639-43.848 43.848-43.848h62.9c78.276 0 142.857 30.4 155.755 123.255h66.544c108.019 0 195.885 87.866 195.885 195.868v168.013c0 52.323-20.36 101.52-57.363 138.525zM228.901 515.181c-84.186 0-152.417 68.247-152.417 152.452s68.232 152.452 152.417 152.452 152.486-68.249 152.486-152.452-68.301-152.452-152.486-152.452zM651.488 515.181c-84.186 0-152.417 68.247-152.417 152.452s68.232 152.452 152.417 152.452 152.486-68.249 152.486-152.452-68.301-152.452-152.486-152.452z" />
<glyph unicode="&#xe90c;" glyph-name="volt" d="M809.975 936.836c-8.605 14.746-24.541 23.164-43.65 23.164h-234.612c-28.007 0-57.104-18.277-69.195-43.485l-248.816-516.761c-8.125-16.856-7.624-34.734 1.21-48.915 8.898-14.307 24.646-22.639 43.318-23.038l184.132-2.318-133.296-333.194c-3.279-8.312-10.172-25.731 2.11-43.632 5.368-7.852 14.579-12.657 24.060-12.657h2.151c17.984 0 28.822 13.639 34.022 20.216l430.713 540.845c18.379 23.038 10.797 43.714 8.019 49.729-2.883 5.763-14.453 24.646-43.799 24.646h-137.055l179.348 316.004c9.402 16.668 9.923 34.713 1.339 49.395z" />
<glyph unicode="&#xe90d;" glyph-name="electric-current" d="M937.256-34.502c0.302-1.543 0.46-3.136 0.46-4.764 0-13.663-11.076-24.735-24.735-24.735-0.035 0-0.069 0.005-0.099 0h-149.763c-7 0-13.673 2.968-18.363 8.162-4.69 5.199-6.96 12.135-6.243 19.1l74.881 728.086c0.163 1.563 0.47 3.082 0.9 4.541-39.204 8.984-70.137 39.674-79.502 78.735h-134.912l-36.953-130.539c-3.018-10.656-12.748-17.997-23.795-17.997-0.119 0-0.242 0-0.361 0.005-11.195 0.158-20.891 7.821-23.626 18.68l-54.040 214.295-30.404-69.608c-3.933-9.008-12.832-14.836-22.667-14.836h-118.825c-9.369-39.061-40.298-69.751-79.502-78.735 0.435-1.459 0.742-2.978 0.9-4.541l74.654-725.855c0.302-1.543 0.46-3.136 0.46-4.764 0-13.663-11.076-24.735-24.735-24.735-0.035 0-0.064 0.005-0.099 0h-149.768c-7 0-13.673 2.968-18.363 8.162-4.69 5.199-6.96 12.135-6.243 19.1l74.886 728.086c0.163 1.563 0.47 3.082 0.9 4.541-47.189 10.809-82.529 53.051-82.529 103.47 0 58.576 47.654 106.235 106.235 106.235 50.048 0 92.012-34.836 103.202-81.5h102.633l52.882 121.081c4.235 9.691 14.183 15.563 24.705 14.752 10.542-0.876 19.362-8.35 21.949-18.605l49.128-194.814 16.869 59.59c3.013 10.646 12.733 17.997 23.8 17.997h153.621c11.19 46.664 53.159 81.5 103.202 81.5 58.576 0 106.23-47.659 106.23-106.235 0-50.419-35.341-92.656-82.529-103.47 0.435-1.459 0.742-2.978 0.9-4.541l74.654-725.845z" />
<glyph unicode="&#xe90e;" glyph-name="voltage2" d="M780.787 960h-384.012l-153.551-552.864h153.864l-130.826-471.136h46.087l445.365 552.887h-225.619z" />
<glyph unicode="&#xe90f;" glyph-name="energy2" d="M938.665 917.333h-853.332c-47.785 0-85.333-37.545-85.333-85.333v-767.999c0-47.787 37.548-85.333 85.333-85.333h853.332c47.787 0 85.333 37.548 85.333 85.333v767.999c0.002 47.787-37.545 85.333-85.333 85.333zM989.866 64c0-29.014-22.186-51.199-51.199-51.199h-853.334c-29.014 0-51.199 22.186-51.199 51.199v767.999c0 29.014 23.894 51.199 51.199 51.199h853.332c29.014 0 51.199-22.186 51.199-51.199v-767.999zM887.466 832h-750.932c-29.014 0-51.199-22.186-51.199-51.199v-409.6c0-29.014 22.186-51.199 51.199-51.199h750.932c29.014 0 51.199 22.186 51.199 51.199v409.6c0 29.014-22.186 51.199-51.199 51.199zM428.372 354.134c8.534 39.253 42.667 68.267 83.627 68.267s75.093-29.014 83.627-68.267h-167.254zM904.532 371.2c0-10.24-6.826-17.066-17.066-17.066h-257.204c-4.565 32.651-22.043 60.837-47.222 79.324l123.336 226.117c48.934-19.162 94.865-45.919 136.717-80.16 6.826-5.12 18.774-3.414 23.894 3.414 5.12 6.826 3.414 18.774-3.414 23.894-43.503 34.654-90.835 62.285-141.020 82.511l26.673 48.902c5.12 8.534 1.706 18.774-6.826 23.894-8.534 3.414-18.774 1.706-23.894-6.826l-29.077-53.834c-56.378 18.631-115.943 28.235-177.431 28.235-126.292 0-250.881-44.373-351.573-124.586-8.534-5.12-8.534-17.066-3.414-23.894 3.414-5.12 8.534-6.826 13.654-6.826 3.414 0 8.534 0 10.24 3.414 95.573 75.093 213.333 117.76 331.093 117.76 55.864 0 109.954-8.141 161.17-24.207l-119.857-221.912c-12.845 4.654-26.753 7.186-41.313 7.186-60.756 0-110.111-44.091-118.261-102.401h-257.204c-10.24 0-17.066 6.826-17.066 17.066v409.596c0 8.534 8.534 17.066 17.066 17.066h750.932c10.24 0 17.066-6.826 17.066-17.066v-409.6zM802.133 268.801c-56.319 0-102.401-46.079-102.401-102.401 0-56.319 46.079-102.401 102.401-102.401 11.214 0 22.011 1.854 32.129 5.224 2.464 0.338 3.711 1.346 3.711-0.104 13.654 5.12 25.6 11.946 35.84 22.186 4.585 5.502 9.152 11.515 13.209 18.003 11.045 16.338 17.511 35.996 17.511 57.090 0 56.321-46.079 102.403-102.399 102.403zM808.959 142.507c0 5.12 1.706 8.534 5.12 11.946 3.414 3.414 6.826 5.12 11.946 5.12s8.534-1.706 11.946-5.12l22.186-22.186c-3.414-5.12-6.826-10.24-10.24-13.654s-8.534-6.826-13.654-10.24l-22.186 22.186c-3.41 3.414-5.118 6.828-5.118 11.948zM733.866 166.401c0 37.548 30.72 68.267 68.267 68.267 36.96 0 67.281-29.772 68.222-66.514l-8.489 8.489c-18.774 20.48-51.199 20.48-71.679 0-10.24-8.534-15.36-22.186-15.36-35.84s5.12-25.6 15.36-35.84l6.596-6.596c-35.071 2.753-62.917 32.289-62.917 68.033zM511.999 268.801c-41.46 0-77.342-24.984-93.407-60.628-0.15-0.277-0.315-0.523-0.46-0.811-0.12-0.319-0.226-0.64-0.344-0.96-5.266-12.306-8.188-25.827-8.188-40s2.924-27.696 8.188-40c0.118-0.319 0.224-0.64 0.344-0.96 0.439-1.753 1.218-3.278 2.245-4.581 16.838-33.623 51.638-56.86 91.622-56.86 56.319 0 102.401 46.079 102.401 102.401 0 56.317-46.079 102.399-102.401 102.399zM445.908 149.333c-0.218 0.836-0.405 1.684-0.592 2.531-0.38 4.697-1.584 10.217-1.584 14.534 0 5.889 0.756 11.606 2.176 17.066h31.958c10.24 0 17.066-6.826 17.066-17.066s-6.826-17.066-17.066-17.066h-31.958zM511.999 98.134c-17.206 0-32.966 6.464-45.006 17.066h10.872c29.014 0 51.199 22.186 51.199 51.199s-22.186 51.199-51.199 51.199h-10.872c12.039 10.602 27.8 17.066 45.006 17.066 37.548 0 68.267-30.72 68.267-68.267s-30.72-68.263-68.267-68.263zM204.799 268.801c-56.319 0-102.401-46.079-102.401-102.401 0-41.622 25.181-77.629 61.051-93.598 0.13-0.089 0.26-0.181 0.388-0.268 0.319-0.12 0.638-0.226 0.958-0.344 12.306-5.266 25.827-8.19 40.002-8.19s27.696 2.924 40.002 8.19c0.319 0.118 0.638 0.224 0.96 0.344 1.753 0.439 3.278 1.218 4.581 2.245 33.623 16.838 56.86 51.638 56.86 91.622 0 56.319-46.079 102.401-102.401 102.401zM221.867 100.309c-5.459-1.419-11.179-2.176-17.066-2.176s-11.606 0.756-17.066 2.176v31.958c0 10.24 6.826 17.066 17.066 17.066s17.066-6.826 17.066-17.066v-31.958zM256.001 121.395v10.872c0 29.014-22.186 51.199-51.199 51.199s-51.199-22.186-51.199-51.199v-10.872c-10.602 12.039-17.066 27.8-17.066 45.006 0 37.548 30.72 68.267 68.267 68.267s68.267-30.72 68.267-68.267c-0.004-17.206-6.468-32.966-17.070-45.006z" />
<glyph unicode="&#xe910;" glyph-name="graph-analysis" d="M802.964 133.811h-581.884c-25.709 0-46.539-20.829-46.539-46.539s20.829-46.56 46.539-46.56h581.84c25.731 0 46.56 20.851 46.56 46.56s-20.851 46.539-46.517 46.539zM162.928 482.937v-116.368c0-19.282 15.644-34.926 34.904-34.926 19.282 0 34.926 15.644 34.926 34.926v116.368c0 19.282-15.644 34.904-34.926 34.904-19.282-0.022-34.904-15.644-34.904-34.904zM279.275 529.453v-162.907c0-19.282 15.644-34.926 34.926-34.926 19.26 0 34.904 15.644 34.904 34.926v162.907c0 19.282-15.644 34.926-34.904 34.926-19.282 0-34.926-15.644-34.926-34.926zM395.643 576.014v-209.445c0-19.282 15.644-34.926 34.926-34.926 19.26 0 34.904 15.644 34.904 34.926v209.445c0 19.282-15.644 34.926-34.904 34.926-19.282 0-34.926-15.644-34.926-34.926zM977.461 855.288h-930.901c-25.709 0-46.56-20.851-46.56-46.56v-581.84c0-25.709 20.851-46.56 46.56-46.56h888.35c-1.351 1.198-2.898 2.179-4.161 3.421l-64.426 64.47c-37.148-20.982-79.22-32.202-122.338-32.202-58.783 0-114.429 20.263-159.181 57.367h-491.727v488.829h837.846v-131.206c40.438-45.645 62.814-103.601 62.814-165.173 0-43.118-11.199-85.168-32.159-122.273l62.422-62.465v527.654c0.022 25.688-20.829 46.539-46.539 46.539zM923.167 316.086c-4.641 4.663-10.872 6.558-16.929 5.904l-9.783 9.783c32.682 37.126 50.722 84.122 50.722 134.016 0 54.251-21.112 105.278-59.459 143.646-38.412 38.455-89.417 59.546-143.733 59.546-54.23 0-105.235-21.112-143.625-59.546-38.433-38.368-59.568-89.395-59.568-143.646s21.178-105.3 59.568-143.668c38.39-38.412 89.395-59.502 143.625-59.502 49.959 0 96.933 18.018 134.016 50.744l9.826-9.761c-0.654-6.101 1.22-12.266 5.904-16.973l70.004-70.004c4.074-4.074 9.39-6.057 14.75-6.057 5.294 0 10.654 2.004 14.75 6.057 8.105 8.149 8.105 21.33 0 29.435l-70.069 70.026zM858.239 351.644c-30.503-30.525-71.093-47.388-114.255-47.388-43.096 0-83.665 16.82-114.168 47.345-30.481 30.481-47.323 71.071-47.323 114.211 0 43.118 16.798 83.687 47.323 114.189 30.503 30.525 71.115 47.345 114.168 47.345 43.161 0 83.752-16.798 114.255-47.345 30.459-30.503 47.279-71.071 47.279-114.189 0-43.14-16.82-83.665-47.279-114.168z" />
<glyph unicode="&#xe911;" glyph-name="graph-line-screen" d="M961.69 908.191h-899.335c-34.32 0-62.355-28.080-62.355-62.31v-646.619c0-34.187 28.035-62.31 62.355-62.31h899.335c34.275 0 62.31 28.123 62.31 62.31v646.619c0 34.23-28.035 62.31-62.31 62.31zM946.002 245.094h-868.004v575.695h868.004v-575.695zM396.628 107.377l-117.68-119.568h467.816l-117.68 119.568zM210.531 360.531c22.983 0 41.702 18.677 41.702 41.658 0 4.174-1.23 7.953-2.373 11.777 53.302 42.976 147.473 118.733 190.404 151.822 6.767-4.789 14.633-8.218 23.553-8.218 7.425 0 14.018 2.461 20.037 5.845 27.595-23.466 74.527-63.365 107.836-91.708-0.44-2.416-1.406-4.569-1.406-7.118 0-23.026 18.719-41.702 41.745-41.702s41.745 18.677 41.745 41.702c0 4.087-1.23 7.823-2.328 11.557l107.836 97.378c5.8-3.031 12.040-5.185 19.072-5.185 23.026 0 41.702 18.677 41.702 41.702s-18.677 41.702-41.702 41.702-41.658-18.677-41.658-41.745c0-5.492 1.186-10.721 3.119-15.511-30.146-27.2-76.635-69.21-105.638-95.4-6.46 4.174-13.755 7.25-22.103 7.25-9.843 0-18.457-3.911-25.574-9.579-27.552 23.421-72.111 61.3-103.793 88.237 1.67 4.482 2.856 9.183 2.856 14.28 0 23.026-18.677 41.702-41.702 41.702s-41.702-18.677-41.702-41.702c0-5.097 1.23-9.843 2.901-14.325l-191.414-148.921c-6.68 4.569-14.37 7.91-23.071 7.91-23.026 0-41.702-18.677-41.702-41.702-0.045-23.030 18.632-41.706 41.658-41.706z" />
<glyph unicode="&#xe912;" glyph-name="growth" d="M436.056 408.218c0 32.017-25.952 57.969-57.969 57.969h-60.246c-32.017 0-57.969-25.952-57.969-57.969v-403.805c0-32.017 25.952-57.969 57.969-57.969h60.246c32.017 0 57.969 25.952 57.969 57.969v403.805zM176.184 267.27c0 34.448-27.925 62.374-62.374 62.374h-51.437c-34.448 0-62.374-27.925-62.374-62.374v-258.453c0-34.448 27.925-62.374 62.374-62.374h51.437c34.448 0 62.374 27.925 62.374 62.374v258.453zM691.523 562.379c0 32.017-25.952 57.969-57.969 57.969h-60.246c-32.017 0-57.969-25.952-57.969-57.969v-557.966c0-32.017 25.952-57.969 57.969-57.969h60.246c32.017 0 57.969 25.952 57.969 57.969v557.966zM1014.614 784.891l-113.013 144.973c-9.756 12.518-23.631 19.697-38.065 19.697s-28.308-7.18-38.065-19.697l-113.013-144.969c-9.695-12.434-12.073-26.084-6.523-37.444 6.048-12.386 20.565-19.777 38.818-19.777l30.458-0.084v-724.83c0-31.964 26.040-56.317 58.004-56.317h60.651c31.964 0 57.529 24.353 57.529 56.317v725.333l30.647-0.423c18.292 0 32.938 7.395 38.985 19.777 5.55 11.364 3.281 25.009-6.413 37.444z" />
<glyph unicode="&#xe915;" glyph-name="contact" d="M810.667 832h-42.667v85.333h-85.333v-85.333h-341.333v85.333h-85.333v-85.333h-42.667c-47.147 0-85.333-38.187-85.333-85.333v-597.333c0-47.147 38.187-85.333 85.333-85.333h597.333c47.147 0 85.333 38.187 85.333 85.333v597.333c0 47.147-38.187 85.333-85.333 85.333zM512 704c70.613 0 128-57.387 128-128 0-70.827-57.387-128-128-128s-128 57.173-128 128c0 70.613 57.387 128 128 128zM768 192h-512v42.667c0 85.333 170.667 132.267 256 132.267s256-46.933 256-132.267v-42.667z" />
<glyph unicode="&#xe916;" glyph-name="img_485242" d="M490.601 745.91c-27.453-1.879-44.154-5.010-68.058-13.048-36.117-12.004-70.876-30.48-93.736-50-23.591-20.146-51.357-50-63.465-68.371-18.893-28.601-36.534-70.563-44.572-105.949-1.983-8.664-5.741-33.507-5.741-37.787 0-0.418-48.329-0.835-107.515-0.835h-107.515v-43.841h214.925l0.626-4.906c4.28-34.655 11.169-60.751 23.904-90.605 17.014-39.77 36.43-67.327 70.041-99.477 25.156-24.008 40.188-34.76 68.162-48.747 49.269-24.53 84.342-32.254 145.823-32.254 29.854 0 36.43 0.731 61.586 7.202 54.384 13.987 101.043 40.605 141.022 80.375 33.611 33.507 57.724 72.233 72.442 116.387 6.159 18.58 9.812 34.133 12.735 55.636l2.401 16.388h209.288v43.841l-209.184 0.522-2.401 16.179c-3.131 21.294-6.681 36.847-12.839 55.323-23.591 70.981-73.799 131.105-140.5 168.475-30.376 17.119-70.25 30.48-100.625 34.029-10.125 1.148-56.471 2.192-66.805 1.461zM548.534 702.173c74.53-10.021 136.951-49.165 179.226-112.212 31.106-46.451 46.451-102.4 42.693-155.009-4.175-57.098-22.025-104.175-55.114-145.615-8.977-11.169-30.584-33.090-41.336-41.649-45.094-36.43-99.999-55.428-159.915-55.428-67.849 0-127.348 23.591-176.095 69.937-45.407 43.11-71.503 95.511-78.079 157.306-1.983 17.641-0.835 56.889 1.983 72.86 9.708 55.010 31.628 96.972 71.503 136.846 44.259 44.154 95.719 68.789 156.157 74.53 13.048 1.253 44.572 0.418 58.977-1.566zM449.057 458.856c-26.096-67.745-48.434-125.991-49.895-129.54l-2.505-6.576h37.265l4.488 13.361c7.202 21.294 19.833 55.636 22.547 61.064l2.505 4.906h106.158l15.136-39.352 15.24-39.457 14.927-0.313c16.493-0.313 21.607 0.209 22.442 2.401 0.313 0.731-6.785 19.415-15.762 41.44-20.042 48.956-87.369 213.151-87.578 213.359 0 0.104-8.559 0.522-18.893 0.939l-18.789 0.731-47.286-122.964zM518.263 538.813c3.758-8.768 40.188-107.097 40.188-108.245 0-0.209-19.207-0.313-42.797-0.313-23.486 0-42.797 0.313-42.797 0.626s4.488 12.944 10.021 27.975c13.465 36.639 28.601 82.045 28.601 85.907 0 6.889 2.192 4.906 6.785-5.95z" />
<glyph unicode="&#xe917;" glyph-name="laptop" d="M1022.738 210.693c-0.978 1.136-2.418 1.809-3.933 1.809h-1013.611c-1.514 0-2.944-0.662-3.933-1.809-0.988-1.136-1.43-2.66-1.209-4.164 0.147-0.946 15.436-94.803 134.097-94.803h755.7c118.651 0 133.94 93.857 134.097 94.803 0.21 1.504-0.231 3.028-1.209 4.164zM588.228 144.596h-152.467v35.057h152.467v-35.057zM110.481 248.988h803.028c11.609 0 21.030 9.421 21.030 21.030v493.215c0 11.609-9.421 21.030-21.030 21.030h-803.028c-11.609 0-21.030-9.421-21.030-21.030v-493.215c0-11.609 9.421-21.030 21.030-21.030zM163.056 710.659h697.878v-388.065h-697.878v388.065z" />
<glyph unicode="&#xe918;" glyph-name="logout" d="M163.881 400h556.109c26.509 0 48 21.491 48 48s-21.491 48-48 48h-556.109l62.060 62.060c18.745 18.745 18.745 49.136 0 67.881-18.742 18.745-49.136 18.745-67.881 0l-143.993-143.996c-1.123-1.123-2.186-2.301-3.19-3.53-0.438-0.534-0.819-1.101-1.232-1.648-0.528-0.704-1.072-1.392-1.562-2.125-0.448-0.669-0.835-1.363-1.245-2.048-0.394-0.659-0.806-1.302-1.168-1.981-0.378-0.704-0.694-1.427-1.034-2.144-0.333-0.701-0.682-1.392-0.979-2.109-0.288-0.701-0.525-1.414-0.778-2.125-0.278-0.768-0.573-1.526-0.81-2.31-0.214-0.71-0.371-1.43-0.55-2.15-0.202-0.797-0.426-1.59-0.586-2.403-0.163-0.829-0.262-1.667-0.381-2.502-0.102-0.714-0.24-1.418-0.31-2.141-0.154-1.549-0.234-3.107-0.237-4.662 0-0.022-0.003-0.048-0.003-0.070s0.003-0.048 0.003-0.070c0.003-1.558 0.083-3.114 0.237-4.666 0.070-0.714 0.205-1.408 0.304-2.115 0.122-0.845 0.221-1.69 0.387-2.528 0.16-0.806 0.381-1.587 0.582-2.378 0.182-0.726 0.342-1.459 0.56-2.179 0.234-0.771 0.525-1.517 0.794-2.272 0.259-0.723 0.496-1.45 0.79-2.16 0.291-0.704 0.634-1.379 0.96-2.067 0.346-0.733 0.672-1.472 1.056-2.192 0.352-0.656 0.752-1.28 1.133-1.917 0.419-0.707 0.819-1.421 1.28-2.109 0.467-0.701 0.989-1.357 1.491-2.032 0.435-0.579 0.838-1.178 1.302-1.741 0.957-1.165 1.971-2.282 3.030-3.354 0.051-0.051 0.093-0.109 0.144-0.16l143.999-144.002c9.376-9.373 21.657-14.061 33.942-14.061 12.282 0.003 24.569 4.688 33.939 14.058 18.745 18.745 18.745 49.136 0.003 67.881l-62.060 62.067zM976 880h-607.996c-26.509 0-48-21.491-48-48v-191.999c0-26.509 21.491-48 48-48s48 21.491 48 48v143.999h511.997v-671.999h-511.997v144.002c0 26.509-21.491 48-48 48s-48-21.491-48-48v-192.002c0-26.509 21.491-48 48-48h607.996c26.509 0 48 21.491 48 48v767.998c0 26.509-21.491 48-48 48z" />
<glyph unicode="&#xe919;" glyph-name="menu2" d="M990.919 940.697h-957.828c-18.245 0-33.092-14.847-33.092-33.092v-147.081c0-18.245 14.847-33.092 33.092-33.092h957.817c18.234 0 33.092 14.847 33.092 33.092v147.081c0.011 18.245-14.836 33.092-33.081 33.092zM990.919 554.627h-957.828c-18.245 0-33.092-14.847-33.092-33.092v-147.081c0-18.245 14.847-33.092 33.092-33.092h957.817c18.234 0 33.092 14.847 33.092 33.092v147.081c0.011 18.245-14.836 33.092-33.081 33.092zM990.919 168.557h-957.828c-18.245 0-33.092-14.847-33.092-33.092v-147.081c0-18.245 14.847-33.092 33.092-33.092h957.817c18.234 0 33.092 14.847 33.092 33.092v147.081c0.011 18.256-14.836 33.092-33.081 33.092z" />
<glyph unicode="&#xe91a;" glyph-name="rubbish" d="M219.97-14.618c1.156-27.6 23.868-49.382 51.488-49.382h481.089c27.62 0 50.332 21.782 51.488 49.382l34.356 725.268h-652.778l34.356-725.268zM620.831 530.506c0 11.557 9.371 20.93 20.932 20.93h33.479c11.554 0 20.932-9.371 20.932-20.93v-414.362c0-11.559-9.371-20.93-20.932-20.93h-33.479c-11.557 0-20.932 9.366-20.932 20.93v414.362zM474.334 530.506c0 11.557 9.371 20.93 20.93 20.93h33.479c11.554 0 20.93-9.371 20.93-20.93v-414.362c0-11.559-9.368-20.93-20.93-20.93h-33.479c-11.557 0-20.93 9.366-20.93 20.93v414.362zM327.832 530.506c0 11.557 9.371 20.93 20.93 20.93h33.481c11.557 0 20.93-9.371 20.93-20.93v-414.362c0-11.559-9.371-20.93-20.93-20.93h-33.481c-11.557 0-20.93 9.366-20.93 20.93v414.362zM861.266 907.249h-221.943v41.959c0 5.959-4.831 10.792-10.792 10.792h-233.063c-5.959 0-10.789-4.833-10.789-10.792v-41.957h-221.945c-17.861 0-32.338-14.479-32.338-32.341v-101.595h763.209v101.592c0 17.861-14.477 32.341-32.338 32.341z" />
<glyph unicode="&#xe91b;" glyph-name="settings" d="M946.57 149.016c38.938-38.938 38.938-103.386 0-143.668-38.938-38.938-103.386-38.938-143.668 0l-429.66 429.66c-2.686 2.686-4.028 4.028-6.714 6.714-24.168-8.056-49.68-12.084-75.19-12.084-61.764 0-124.87 24.168-171.864 72.506s-71.162 111.442-71.162 173.206c0 30.882 8.056 60.42 20.14 89.96l111.444-114.128 102.044 34.91 36.252 107.414-111.442 110.1c87.274 33.568 187.976 14.77 256.454-55.050 46.994-48.336 71.162-111.442 71.162-173.206 0-32.224-6.714-65.792-18.798-95.33l431.002-431.004zM875.044-64c-36.104 0-72.304 13.468-100.138 40.374l-420.192 420.194c-20.624-4.78-41.852-7.21-63.374-7.21-75.244 0-148.408 30.868-200.746 84.696-52.472 53.976-82.562 127.34-82.562 201.296 0 33.192 7.358 66.61 23.134 105.2 5.142 12.568 16.26 21.684 29.58 24.29 13.332 2.592 27.042-1.678 36.534-11.4l93.666-95.922 59.186 20.248 21.858 64.758-93.544 92.416c-9.734 9.614-13.924 23.51-11.118 36.898s12.192 24.45 24.948 29.364c104.326 40.12 221.932 14.824 299.674-64.448 0.040-0.040 0.080-0.080 0.12-0.12 52.472-53.976 82.562-127.34 82.562-201.282 0-27.968-4.43-57.278-12.688-84.764l413.104-413.090c54.378-54.392 54.58-144.164 0.484-200.14-27.58-27.582-63.98-41.358-100.488-41.358zM366.516 481.99c10.54 0 20.838-4.136 28.532-11.83l436.332-436.346c24.088-23.242 63.2-23.498 86.71 0.014 23.268 24.088 23.484 63.2-0.014 86.698l-431 431.002c-11.48 11.48-14.944 28.72-8.794 43.744 10.19 24.894 15.804 53.332 15.804 80.078 0 53.144-21.764 106.006-59.71 145.078-38.898 39.61-91.786 59.87-145.776 58.958l57.91-57.212c10.956-10.822 14.782-26.948 9.856-41.542l-36.252-107.414c-4.002-11.856-13.28-21.174-25.122-25.23l-102.044-34.91c-14.73-5.048-31.002-1.154-41.864 9.976l-62.032 63.522c-0.296-3.786-0.456-7.52-0.456-11.212 0-53.17 21.778-106.072 59.764-145.13 37.26-38.32 89.382-60.3 142.982-60.3 21.496 0 42.522 3.37 62.462 10.016 4.172 1.368 8.468 2.040 12.712 2.040z" />
<glyph unicode="&#xe91c;" glyph-name="cinvestav" d="M667.917 929.612c-49.318 15.866-101.902 24.457-156.498 24.457-69.142 0-135.057-13.759-195.2-38.651-36.611-15.154-50.674-59.819-30.4-93.864l99.122-166.445c8.659-14.538 26.699-20.247 42.261-13.601 25.869 11.054 54.296 17.25 84.213 17.25 23.864 0 46.764-3.973 68.189-11.185 15.937-5.361 33.345 1.945 40.758 17.040l85.391 173.902c17.467 35.559-0.127 78.963-37.837 91.096zM622.394 716.134c-5.551-13.68-20.543-21.346-34.693-17.127-24.173 7.204-49.769 11.098-76.286 11.098-33.634 0-65.797-6.251-95.438-17.602-14.233-5.452-30.277 0.225-37.125 13.842l-44.578 88.649c-7.516 14.945-1.044 33.401 14.403 39.825 50.121 20.856 105.065 32.428 162.741 32.428 45.637 0 89.562-7.263 130.748-20.614 15.917-5.16 23.852-23.038 17.558-38.54l-37.331-91.958zM96.738 742.034c-30.333-42.004-54.75-89.357-71.621-141.284-21.366-65.757-28.648-132.701-23.56-197.592 3.096-39.505 41.233-66.679 79.876-57.917l188.93 42.838c16.503 3.744 27.51 19.136 25.991 35.99-2.518 28.020 0.376 56.968 9.619 85.423 7.374 22.694 18.23 43.245 31.708 61.397 10.027 13.502 8.453 32.313-3.61 44.028l-139.007 134.954c-28.423 27.597-75.136 24.279-98.328-7.836zM285.7 632.771c11.292-9.509 13.952-26.134 5.567-38.287-14.324-20.765-25.936-43.905-34.128-69.122-10.394-31.989-14.387-64.508-12.751-96.205 0.787-15.222-9.572-28.727-24.639-31.032l-98.087-15.004c-16.538-2.53-32.088 9.331-33.428 26.003-4.349 54.114 1.625 109.944 19.448 164.797 14.103 43.403 34.583 82.932 60.009 117.977 9.825 13.541 29.281 15.566 42.083 4.788l75.926-63.915zM98.632 140.844c30.574-41.826 68.062-79.682 112.237-111.774 55.936-40.64 117.353-68.252 180.639-83.466 38.528-9.259 76.156 18.61 79.765 58.071l17.641 192.919c1.542 16.851-9.698 32.076-26.197 35.844-27.427 6.263-54.062 17.958-78.267 35.543-19.306 14.028-35.496 30.704-48.595 49.128-9.742 13.707-28.122 18.025-42.988 10.169l-171.301-90.496c-35.033-18.503-46.313-63.958-22.935-95.94zM260.938 286.793c12.533 7.801 29.166 5.191 38.133-6.535 15.32-20.037 33.741-38.232 55.193-53.817 27.213-19.768 56.905-33.618 87.558-41.854 14.72-3.954 24.363-17.981 21.899-33.021l-16.040-97.92c-2.704-16.511-18.788-27.632-35.061-23.754-52.809 12.585-104.061 35.52-150.722 69.422-36.919 26.826-68.189 58.518-93.658 93.528-9.845 13.529-5.753 32.657 8.449 41.502l84.249 52.449zM670.981-43.133c49.227 16.151 96.817 40.11 140.988 72.202 55.936 40.64 101.174 90.515 135.204 146.005 20.713 33.78 5.836 78.18-30.578 93.805l-178.026 76.393c-15.55 6.674-33.503 0.688-42.186-13.838-14.431-24.149-33.788-45.866-57.992-63.452-19.306-14.028-40.169-24.272-61.74-31.032-16.048-5.029-25.833-21.176-22.959-37.742l33.132-190.883c6.777-39.035 46.519-63.808 84.158-51.457zM582.332 156.33c-3.546 14.328 4.076 29.344 17.997 34.247 23.793 8.378 46.788 20.274 68.24 35.86 27.213 19.768 49.559 43.732 66.864 70.336 8.311 12.778 24.627 17.614 38.173 10.624l88.171-45.515c14.866-7.674 20.476-26.407 11.758-40.687-28.288-46.333-65.939-87.993-112.6-121.892-36.919-26.826-76.725-46.768-117.894-60.175-15.91-5.179-32.839 4.618-36.86 20.86l-23.849 96.343zM1022.818 444.351c-0.15 51.809-8.228 104.472-25.102 156.399-21.366 65.757-54.822 124.197-97.078 173.704-25.727 30.139-72.55 29.708-98.664-0.095l-127.668-145.708c-11.153-12.727-11.007-31.649 0.127-44.396 18.507-21.188 33.183-46.305 42.427-74.76 7.374-22.694 10.671-45.704 10.434-68.308-0.174-16.815 12.154-31.111 28.802-33.495l191.777-27.474c39.22-5.622 75.060 24.521 74.946 64.132zM805.726 421.68c-14.723 1.056-26.648 12.944-27.008 27.699-0.617 25.216-4.827 50.765-13.019 75.982-10.394 31.989-26.276 60.645-46.234 85.324-9.584 11.853-9.141 28.866 1.692 39.588l70.533 69.794c11.893 11.766 31.444 11.311 42.328-1.392 35.326-41.221 63.31-89.902 81.133-144.756 14.103-43.403 20.769-87.424 20.796-130.72 0.012-16.732-14.542-29.803-31.23-28.609l-98.992 7.089zM396.936 802.004c-36.144-11.861-71.083-29.447-103.515-53.011-41.071-29.838-74.285-66.461-99.269-107.2-15.21-24.801-4.282-57.403 22.453-68.873l130.712-56.091c11.418-4.899 24.6-0.506 30.973 10.161 10.596 17.732 24.805 33.677 42.577 46.59 14.174 10.299 29.494 17.819 45.333 22.785 11.782 3.693 18.966 15.546 16.854 27.711l-24.327 140.15c-4.978 28.656-34.156 46.843-61.792 37.777zM462.026 655.552c2.605-10.521-2.993-21.544-13.217-25.145-17.467-6.152-34.353-14.886-50.105-26.331-19.978-14.514-36.386-32.108-49.093-51.643-6.101-9.382-18.084-12.932-28.028-7.801l-64.737 33.416c-10.916 5.634-15.032 19.389-8.635 29.874 20.769 34.017 48.413 64.607 82.671 89.495 27.11 19.697 56.336 34.338 86.562 44.182 11.679 3.803 24.109-3.392 27.063-15.317l17.519-70.731zM138.608 444.082c0.111-38.042 6.041-76.705 18.428-114.83 15.688-48.282 40.252-91.187 71.281-127.537 18.887-22.129 53.268-21.812 72.443 0.071l93.738 106.982c8.188 9.346 8.081 23.24-0.091 32.598-13.589 15.558-24.363 33.998-31.151 54.893-5.413 16.665-7.836 33.555-7.662 50.152 0.13 12.347-8.923 22.844-21.148 24.596l-140.81 20.172c-28.795 4.12-55.11-18.013-55.027-47.096zM298.004 460.727c10.809-0.775 19.567-9.505 19.832-20.338 0.455-18.515 3.542-37.271 9.56-55.786 7.631-23.489 19.294-44.526 33.946-62.65 7.038-8.702 6.713-21.196-1.241-29.067l-51.793-51.243c-8.73-8.639-23.085-8.307-31.080 1.020-25.936 30.265-46.483 66.010-59.57 106.282-10.355 31.867-15.249 64.188-15.269 95.975-0.008 12.284 10.675 21.884 22.931 21.006l72.684-5.199zM399.186 87.789c36.212-11.651 74.819-17.958 114.905-17.958 50.765 0 99.162 10.102 143.32 28.379 26.881 11.126 37.204 43.921 22.318 68.916l-72.779 122.208c-6.357 10.675-19.602 14.866-31.028 9.983-18.993-8.117-39.865-12.664-61.831-12.664-17.523 0-34.334 2.918-50.065 8.212-11.703 3.938-24.485-1.427-29.925-12.513l-62.697-127.684c-12.822-26.102 0.095-57.969 27.782-66.88zM432.606 244.528c4.076 10.042 15.083 15.672 25.47 12.577 17.748-5.29 36.544-8.149 56.012-8.149 24.695 0 48.31 4.586 70.071 12.925 10.45 4.005 22.231-0.166 27.261-10.165l32.732-65.089c5.519-10.975 0.767-24.525-10.576-29.241-36.801-15.313-77.14-23.809-119.488-23.809-33.507 0-65.757 5.333-95.999 15.135-11.687 3.788-17.511 16.918-12.893 28.3l27.411 67.517zM818.559 225.515c22.271 30.839 40.201 65.607 52.588 103.732 15.688 48.282 21.034 97.43 17.297 145.076-2.273 29.004-30.273 48.958-58.649 42.522l-138.714-31.451c-12.118-2.748-20.195-14.051-19.084-26.426 1.85-20.571-0.273-41.826-7.061-62.717-5.413-16.665-13.387-31.752-23.283-45.080-7.362-9.912-6.207-23.726 2.653-32.325l102.060-99.087c20.867-20.259 55.166-17.823 72.194 5.757zM679.817 305.739c-8.291 6.982-10.244 19.187-4.088 28.111 10.517 15.245 19.041 32.234 25.058 50.753 7.631 23.489 10.564 47.361 9.362 70.636-0.577 11.177 7.030 21.093 18.092 22.785l72.016 11.015c12.142 1.858 23.56-6.848 24.544-19.092 3.195-39.73-1.194-80.726-14.281-120.998-10.355-31.867-25.39-60.89-44.060-86.621-7.215-9.943-21.5-11.426-30.898-3.515l-55.747 46.926zM817.168 666.923c-22.449 30.712-49.974 58.506-82.406 82.070-41.071 29.838-86.162 50.113-132.63 61.282-28.288 6.8-55.917-13.664-58.566-42.636l-12.952-141.648c-1.131-12.375 7.121-23.552 19.235-26.316 20.136-4.598 39.695-13.185 57.467-26.098 14.174-10.299 26.063-22.544 35.678-36.073 7.152-10.062 20.646-13.237 31.566-7.468l125.774 66.445c25.719 13.589 33.998 46.962 16.835 70.442zM698 559.766c-9.2-5.729-21.413-3.811-28 4.8-11.248 14.712-24.774 28.071-40.525 39.513-19.978 14.514-41.778 24.683-64.287 30.732-10.809 2.902-17.886 13.201-16.080 24.244l11.778 71.897c1.985 12.122 13.794 20.29 25.742 17.444 38.774-9.24 76.405-26.078 110.663-50.971 27.11-19.697 50.065-42.965 68.766-68.671 7.227-9.936 4.226-23.979-6.203-30.471l-61.855-38.517z" />
<glyph unicode="&#xe91d;" d="M359.617 157.184l-152.769-83.33c-8.965-4.888-17.022-10.897-24.518-17.447 89.069-75.1 204.046-120.407 329.67-120.407 124.696 0 238.94 44.631 327.757 118.707-8.192 6.917-17.080 13.138-26.933 18.046l-163.589 81.785c-21.137 10.568-34.488 32.169-34.488 55.798v64.184c4.598 5.236 9.854 11.96 15.476 19.9 22.296 31.493 39.163 66.135 50.852 102.477 20.982 6.472 36.439 25.851 36.439 48.882v68.511c0 15.070-6.704 28.537-17.118 37.965v99.038c0 0 20.345 154.122-188.377 154.122s-188.377-154.122-188.377-154.122v-99.038c-10.433-9.429-17.118-22.895-17.118-37.965v-68.511c0-18.046 9.486-33.927 23.687-43.105 17.118-74.52 61.942-128.155 61.942-128.155v-62.599c-0.019-22.798-12.501-43.8-32.536-54.736z" />
<glyph unicode="&#xe91e;" d="M520.752 959.923c-282.721 4.83-515.845-220.45-520.675-503.17-2.744-160.304 68.705-304.379 182.465-400.191 7.438 6.492 15.418 12.443 24.286 17.273l152.769 83.33c20.036 10.936 32.517 31.937 32.517 54.774v62.599c0 0-44.843 53.634-61.942 128.155-14.181 9.177-23.687 25.040-23.687 43.105v68.511c0 15.070 6.704 28.537 17.118 37.965v99.038c0 0-20.345 154.122 188.377 154.122s188.377-154.122 188.377-154.122v-99.038c10.433-9.429 17.118-22.895 17.118-37.965v-68.511c0-23.030-15.457-42.409-36.439-48.882-11.689-36.342-28.556-70.984-50.852-102.477-5.622-7.941-10.878-14.664-15.476-19.9v-64.184c0-23.629 13.351-45.249 34.488-55.798l163.589-81.785c9.815-4.907 18.683-11.109 26.856-18.007 110.322 92.005 181.596 229.569 184.243 384.483 4.869 282.721-220.392 515.845-503.132 520.675z" />
<glyph unicode="&#xe91f;" glyph-name="user-3" d="M1024 448c0 282.307-229.693 512-512 512s-512-229.693-512-512c0-149.113 64.121-283.518 166.186-377.167l-0.484-0.428 16.607-14.001c1.080-0.912 2.253-1.657 3.333-2.551 8.825-7.317 17.967-14.262 27.276-20.983 3.016-2.178 6.032-4.357 9.104-6.479 9.942-6.851 20.145-13.349 30.571-19.512 2.271-1.341 4.561-2.644 6.851-3.947 11.413-6.498 23.068-12.623 35.002-18.246 0.875-0.41 1.769-0.782 2.644-1.192 38.893-18.078 80.412-31.353 123.83-39.191 1.136-0.205 2.271-0.41 3.426-0.614 13.48-2.327 27.108-4.189 40.904-5.437 1.676-0.149 3.351-0.242 5.046-0.391 13.74-1.136 27.629-1.862 41.705-1.862 13.945 0 27.704 0.726 41.37 1.825 1.731 0.149 3.463 0.242 5.194 0.391 13.684 1.247 27.201 3.053 40.55 5.343 1.154 0.205 2.327 0.41 3.482 0.633 42.766 7.671 83.689 20.648 122.079 38.26 1.415 0.652 2.849 1.266 4.264 1.936 11.487 5.399 22.714 11.227 33.718 17.427 2.737 1.545 5.455 3.109 8.173 4.71 10.017 5.902 19.866 12.065 29.435 18.618 3.444 2.346 6.814 4.822 10.221 7.28 8.173 5.883 16.198 11.953 23.999 18.302 1.731 1.396 3.593 2.607 5.288 4.040l17.036 14.224-0.503 0.428c102.959 93.687 167.694 228.706 167.694 378.582zM37.236 448c0 261.79 212.973 474.764 474.764 474.764s474.764-212.973 474.764-474.764c0-141.070-61.905-267.897-159.912-354.918-5.474 3.779-10.985 7.168-16.626 9.998l-157.64 78.811c-14.15 7.075-22.938 21.299-22.938 37.106v55.054c3.649 4.506 7.503 9.607 11.487 15.211 20.406 28.821 36.771 60.881 48.705 95.381 23.589 11.208 38.819 34.704 38.819 61.235v66.001c0 16.142-5.921 31.8-16.514 44.106v86.891c0.968 9.681 4.394 64.195-35.058 109.177-34.313 39.173-89.851 59.001-165.087 59.001s-130.774-19.828-165.087-58.982c-39.452-44.982-36.026-99.533-35.058-109.177v-86.891c-10.575-12.307-16.514-27.965-16.514-44.106v-66.001c0-20.499 9.197-39.619 24.948-52.522 15.081-59.075 46.117-103.796 57.586-118.952v-53.881c0-15.192-8.285-29.156-21.634-36.454l-147.214-80.3c-4.692-2.551-9.346-5.53-14.001-8.862-96.796 86.984-157.789 213.029-157.789 353.075z" />
<glyph unicode="&#xe920;" glyph-name="add-user" d="M461.854 773.939c0-90.693-73.521-164.215-164.215-164.215s-164.215 73.521-164.215 164.215c0 90.693 73.521 164.215 164.215 164.215s164.215-73.521 164.215-164.215zM751.871 502.106c-150.054 0-272.131-122.077-272.131-272.129s122.077-272.131 272.131-272.131c150.054 0 272.131 122.077 272.131 272.131s-122.077 272.129-272.131 272.129zM920.192 188.924h-127.267v-127.267h-82.107v127.267h-127.267v82.107h127.267v127.267h82.107v-127.267h127.267v-82.107zM297.639 527.617c-164.382 0-297.639-133.258-297.639-297.639h397.633c0 88.577 32.681 169.664 86.615 231.841-51.046 41.144-115.938 65.798-186.608 65.798z" />
<glyph unicode="&#xe921;" glyph-name="user2" d="M749.449 722.551c0-131.14-106.31-237.449-237.449-237.449s-237.449 106.31-237.449 237.449c0 131.14 106.31 237.449 237.449 237.449s237.449-106.31 237.449-237.449zM512 366.377c-237.691 0-430.377-192.686-430.377-430.377h860.754c0 237.691-192.686 430.377-430.377 430.377z" />
<glyph unicode="&#xe922;" glyph-name="voltage" d="M577.046 717.377v121.311c0 11.825-9.584 21.409-21.409 21.409h-363.931c-11.825 0-21.409-9.584-21.409-21.409v-121.311c0-11.825 9.584-21.409 21.409-21.409h363.931c11.825 0 21.409 9.586 21.409 21.409zM534.228 738.786h-321.114v78.494h321.114v-78.494zM484.681 604.071c-61.21 61.212-160.81 61.208-222.020 0-61.208-61.21-61.208-160.808 0-222.015 30.605-30.605 70.808-45.907 111.011-45.907 40.201 0 80.404 15.302 111.009 45.907 61.21 61.21 61.21 160.806 0 222.015zM454.402 573.796c39.34-39.342 43.888-100.471 13.694-144.882l-158.577 158.574c19.284 13.112 41.709 19.694 64.15 19.694 29.24 0 58.477-11.13 80.732-33.386zM292.938 412.33c-39.34 39.342-43.888 100.471-13.694 144.882l158.577-158.577c-44.409-30.191-105.543-25.645-144.882 13.694zM907.225 855.916v82.676c0 11.825-9.584 21.409-21.409 21.409s-21.409-9.584-21.409-21.409v-82.676c-20.9-8.487-35.679-28.997-35.679-52.906v-174.831c0-11.825 9.584-21.409 21.409-21.409h14.27v-430.76c0-108.732-88.461-197.196-197.196-197.196-106.016 0-192.724 84.11-196.989 189.098h78.004v-12.35c0-62.047 50.482-112.527 112.529-112.527s112.527 50.479 112.527 112.527v451.208h14.272c11.825 0 21.409 9.584 21.409 21.409v174.831c0 23.909-14.782 44.418-35.681 52.906v82.676c0 11.825-9.584 21.409-21.409 21.409s-21.409-9.584-21.409-21.409v-82.676c-20.9-8.487-35.679-28.997-35.679-52.906v-174.831c0-11.825 9.584-21.409 21.409-21.409h14.27v-451.208c0-38.438-31.271-69.709-69.709-69.709s-69.712 31.271-69.712 69.709v14.77c42.998 9.77 75.199 48.274 75.199 94.186v598.873c0 53.27-43.338 96.608-96.608 96.608h-391.929c-53.27 0-96.608-43.338-96.608-96.608v-598.871c0-53.27 43.338-96.608 96.608-96.608h249.645c4.286-128.607 110.231-231.916 239.863-231.916 132.344 0 240.011 107.669 240.011 240.013v430.76h14.27c11.825 0 21.409 9.584 21.409 21.409v174.831c0 23.909-14.782 44.418-35.679 52.906zM766.144 803.010v-153.422h-28.543v153.422c0 7.869 6.401 14.27 14.27 14.27 7.871 0 14.272-6.401 14.272-14.27zM123.916 264.521v598.871c0 29.661 24.13 53.791 53.791 53.791h391.929c29.661 0 53.791-24.13 53.791-53.791v-598.871c0-29.661-24.132-53.791-53.791-53.791h-391.929c-29.661 0.002-53.791 24.132-53.791 53.791zM900.086 803.010v-153.422h-28.54v153.422c0 7.869 6.401 14.27 14.27 14.27s14.27-6.401 14.27-14.27zM580.611 239.276v5.352h5.352c11.825 0 21.409 9.584 21.409 21.409s-9.584 21.409-21.409 21.409h-5.352v5.352c0 11.825-9.584 21.409-21.409 21.409s-21.409-9.584-21.409-21.409v-5.352h-5.35c-11.825 0-21.409-9.584-21.409-21.409s9.584-21.409 21.409-21.409h5.35v-5.352c0-11.825 9.584-21.409 21.409-21.409s21.409 9.584 21.409 21.409zM480.233 287.443h-53.519c-11.825 0-21.409-9.584-21.409-21.409s9.584-21.409 21.409-21.409h53.519c11.825 0 21.409 9.584 21.409 21.409s-9.586 21.409-21.409 21.409z" />
<glyph unicode="&#xe923;" glyph-name="voltmeter" d="M716.8 960h-409.6c-56.32 0-102.4-46.080-102.4-102.4v-819.2c0-56.32 46.080-102.4 102.4-102.4h409.6c56.32 0 102.4 46.080 102.4 102.4v819.2c0 56.32-46.080 102.4-102.4 102.4zM785.066 38.4c0-37.546-30.72-68.266-68.266-68.266h-409.6c-37.546 0-68.266 30.72-68.266 68.266v819.2c0 37.546 30.72 68.266 68.266 68.266h409.6c37.546 0 68.266-30.72 68.266-68.266v-819.2zM337.344 482.292c0.118-0.010 0.234-0.018 0.352-0.026 1.202-0.078 2.412-0.132 3.638-0.132h341.334c1.226 0 2.436 0.054 3.638 0.132 0.118 0.008 0.234 0.016 0.352 0.026 27.030 1.934 47.21 23.376 47.21 51.042v273.066c0 29.014-22.186 51.2-51.2 51.2h-341.334c-29.014 0-51.2-22.186-51.2-51.2v-273.066c0-27.666 20.178-49.11 47.21-51.042zM341.334 516.266c-1.726 0-3.348 0.21-4.864 0.582-0.746 0.252-1.44 0.602-1.964 1.126 49.494 42.666 112.64 66.56 177.494 66.56 66.56 0 129.706-23.894 177.494-66.56-0.402-0.402-0.804-0.702-1.228-0.936-1.72-0.5-3.59-0.77-5.598-0.77h-341.334zM341.334 823.466h341.334c10.24 0 17.066-6.826 17.066-17.066v-252.464c-46.198 36.14-100.758 57.96-158.9 63.384l71.86 129.348c5.12 8.534 1.706 18.774-6.826 23.894s-18.774 1.706-23.894-6.826l-80.708-145.272c-64.896-2.23-126.038-24.656-177-64.524v252.46c0 8.534 8.534 17.066 17.068 17.066zM409.6 379.734c0 37.546-30.72 68.266-68.266 68.266s-68.266-30.72-68.266-68.266c0-37.546 30.72-68.266 68.266-68.266 37.546-0.002 68.266 30.718 68.266 68.266zM341.334 345.6c-18.774 0-34.134 15.36-34.134 34.134s15.36 34.134 34.134 34.134c18.774 0 34.134-15.36 34.134-34.134s-15.362-34.134-34.134-34.134zM443.734 379.734c0-37.546 30.72-68.266 68.266-68.266s68.266 30.72 68.266 68.266c0 37.546-30.72 68.266-68.266 68.266s-68.266-30.72-68.266-68.266zM546.134 379.734c0-18.774-15.36-34.134-34.134-34.134s-34.134 15.36-34.134 34.134 15.36 34.134 34.134 34.134c18.774-0.002 34.134-15.362 34.134-34.134zM682.666 448c-37.546 0-68.266-30.72-68.266-68.266s30.72-68.266 68.266-68.266c37.546 0 68.266 30.72 68.266 68.266 0.002 37.546-30.718 68.266-68.266 68.266zM682.666 345.6c-18.774 0-34.134 15.36-34.134 34.134s15.36 34.134 34.134 34.134c18.774 0 34.134-15.36 34.134-34.134s-15.36-34.134-34.134-34.134zM512 277.334c-75.094 0-136.534-61.44-136.534-136.534s61.44-136.534 136.534-136.534 136.534 61.44 136.534 136.534-61.44 136.534-136.534 136.534zM512 38.4c-56.32 0-102.4 46.080-102.4 102.4s46.080 102.4 102.4 102.4 102.4-46.080 102.4-102.4c0-56.32-46.080-102.4-102.4-102.4z" />
<glyph unicode="&#xe924;" glyph-name="file-empty" d="M917.806 730.924c-22.212 30.292-53.174 65.7-87.178 99.704s-69.412 64.964-99.704 87.178c-51.574 37.82-76.592 42.194-90.924 42.194h-496c-44.112 0-80-35.888-80-80v-864c0-44.112 35.888-80 80-80h736c44.112 0 80 35.888 80 80v624c0 14.332-4.372 39.35-42.194 90.924zM785.374 785.374c30.7-30.7 54.8-58.398 72.58-81.374h-153.954v153.946c22.984-17.78 50.678-41.878 81.374-72.572zM896 16c0-8.672-7.328-16-16-16h-736c-8.672 0-16 7.328-16 16v864c0 8.672 7.328 16 16 16 0 0 495.956 0.002 496 0v-224c0-17.672 14.326-32 32-32h224v-624z" />
<glyph unicode="&#xe925;" glyph-name="voltaje" d="M1015.094 73.386l-462.228 800.562c-8.456 14.653-24.086 23.677-40.998 23.677s-32.555-9.024-41.012-23.677l-464.515-804.539c-8.456-14.653-8.456-32.701 0-47.353 8.456-14.655 24.099-23.679 41.012-23.679h929.029c0.092 0 0.197-0.013 0.264 0 26.16 0 47.353 21.193 47.353 47.356 0 10.332-3.304 19.872-8.906 27.653zM129.377 93.086l382.491 662.479 382.491-662.492-764.982 0.013zM619.207 508.879l-129.761-144.195h115.321l-230.678-230.665 86.528 187.406h-100.917l115.319 187.453h144.188z" />
<glyph unicode="&#xe928;" glyph-name="calendar1" d="M109.714 9.143h164.571v164.571h-164.571v-164.571zM310.857 9.143h182.857v164.571h-182.857v-164.571zM109.714 210.286h164.571v182.857h-164.571v-182.857zM310.857 210.286h182.857v182.857h-182.857v-182.857zM109.714 429.714h164.571v164.571h-164.571v-164.571zM530.286 9.143h182.857v164.571h-182.857v-164.571zM310.857 429.714h182.857v164.571h-182.857v-164.571zM749.714 9.143h164.571v164.571h-164.571v-164.571zM530.286 210.286h182.857v182.857h-182.857v-182.857zM329.143 704v164.571q0 7.429-5.429 12.857t-12.857 5.429h-36.571q-7.429 0-12.857-5.429t-5.429-12.857v-164.571q0-7.429 5.429-12.857t12.857-5.429h36.571q7.429 0 12.857 5.429t5.429 12.857zM749.714 210.286h164.571v182.857h-164.571v-182.857zM530.286 429.714h182.857v164.571h-182.857v-164.571zM749.714 429.714h164.571v164.571h-164.571v-164.571zM768 704v164.571q0 7.429-5.429 12.857t-12.857 5.429h-36.571q-7.429 0-12.857-5.429t-5.429-12.857v-164.571q0-7.429 5.429-12.857t12.857-5.429h36.571q7.429 0 12.857 5.429t5.429 12.857zM987.429 740.571v-731.429q0-29.714-21.714-51.429t-51.429-21.714h-804.571q-29.714 0-51.429 21.714t-21.714 51.429v731.429q0 29.714 21.714 51.429t51.429 21.714h73.143v54.857q0 37.714 26.857 64.571t64.571 26.857h36.571q37.714 0 64.571-26.857t26.857-64.571v-54.857h219.429v54.857q0 37.714 26.857 64.571t64.571 26.857h36.571q37.714 0 64.571-26.857t26.857-64.571v-54.857h73.143q29.714 0 51.429-21.714t21.714-51.429z" />
<glyph unicode="&#xe929;" glyph-name="parameters1" d="M787.2 704c-8.533 36.267-42.667 64-83.2 64s-72.533-27.733-83.2-64h-578.133v-42.667h578.133c8.533-36.267 42.667-64 83.2-64s72.533 27.733 83.2 64h194.133v42.667h-194.133zM704 640c-23.467 0-42.667 19.2-42.667 42.667s19.2 42.667 42.667 42.667 42.667-19.2 42.667-42.667-19.2-42.667-42.667-42.667zM704 298.667c-40.533 0-72.533-27.733-83.2-64h-578.133v-42.667h578.133c8.533-36.267 42.667-64 83.2-64s72.533 27.733 83.2 64h194.133v42.667h-194.133c-10.667 36.267-42.667 64-83.2 64zM704 170.667c-23.467 0-42.667 19.2-42.667 42.667s19.2 42.667 42.667 42.667 42.667-19.2 42.667-42.667-19.2-42.667-42.667-42.667zM320 533.333c-40.533 0-72.533-27.733-83.2-64h-194.133v-42.667h194.133c8.533-36.267 42.667-64 83.2-64s72.533 27.733 83.2 64h578.133v42.667h-578.133c-10.667 36.267-42.667 64-83.2 64zM320 405.333c-23.467 0-42.667 19.2-42.667 42.667s19.2 42.667 42.667 42.667 42.667-19.2 42.667-42.667c0-23.467-19.2-42.667-42.667-42.667z" />
<glyph unicode="&#xe92a;" glyph-name="edit-user" d="M320 64h-192v192zM1024.007 767.987l-639.988-639.988-191.992 191.992 639.988 639.988 191.992-191.992zM128-64v64h704v-64h-704z" />
<glyph unicode="&#xe92b;" d="M469.333 106.667v128h-170.667v-156.373c0-31.36 25.387-56.96 56.96-56.96h312.96c31.36 0 56.96 25.387 56.96 56.96v156.373h-187.733l-68.48-128z" />
<glyph unicode="&#xe92c;" d="M668.373 789.333h-71.040v85.333h-170.667v-85.333h-71.040c-31.573 0-56.96-25.387-56.96-56.96v-497.707h170.667v106.667h-85.333l170.667 320v-234.667h85.333l-102.4-192h187.733v497.707c0 31.573-25.387 56.96-56.96 56.96z" />
<glyph unicode="&#xe92d;" glyph-name="consumtion2" d="M668.373 789.333h-71.040v85.333h-170.667v-85.333h-71.040c-31.573 0-56.96-25.387-56.96-56.96v-654.293c0-31.36 25.387-56.96 56.96-56.96h312.96c31.36 0 56.96 25.387 56.96 56.96v654.293c-0.213 31.573-25.6 56.96-57.173 56.96zM469.333 106.667v234.667h-85.333l170.667 320v-234.667h85.333l-170.667-320z" />
<glyph unicode="&#xe92e;" glyph-name="dashboard" d="M853.333 192v42.667c47.147 0 84.907 38.187 84.907 85.333l0.427 426.667c0 47.147-38.187 85.333-85.333 85.333h-682.667c-47.147 0-85.333-38.187-85.333-85.333v-426.667c0-47.147 38.187-85.333 85.333-85.333v-42.667h-170.667v-85.333h1024v85.333h-170.667zM170.667 746.667h682.667v-426.667h-682.667v426.667z" />
<glyph unicode="&#xe92f;" glyph-name="edit" d="M128 224v-160h160l472.107 472.107-160 160-472.107-472.107zM883.413 659.413c16.64 16.64 16.64 43.733 0 60.373l-99.627 99.627c-16.64 16.64-43.733 16.64-60.373 0l-78.080-78.080 160-160 78.080 78.080z" />
<glyph unicode="&#xe930;" glyph-name="range" d="M901.408 498.479h-37.225c-19.817 55.974-73.079 96.155-135.846 96.155s-116.029-40.181-135.846-96.155h-469.901c-23.898 0-43.268-19.369-43.268-43.268 0-23.884 19.369-43.268 43.268-43.268h466.872c16.846-60.964 72.56-105.775 138.875-105.775s122.029 44.811 138.875 105.775h34.196c23.898 0 43.268 19.384 43.268 43.268 0 23.898-19.369 43.268-43.268 43.268zM901.408 123.493h-469.901c-19.817 55.974-73.079 96.141-135.846 96.141s-116.029-40.167-135.846-96.141h-37.225c-23.898 0-43.268-19.384-43.268-43.268s19.369-43.268 43.268-43.268h34.196c16.846-60.964 72.56-105.775 138.875-105.775s122.029 44.811 138.875 105.775h466.872c23.898 0 43.268 19.384 43.268 43.268s-19.369 43.268-43.268 43.268zM122.592 772.507h34.196c16.846-60.964 72.56-105.76 138.875-105.76s122.029 44.811 138.875 105.76h466.872c23.898 0 43.268 19.369 43.268 43.268s-19.369 43.268-43.268 43.268h-469.901c-19.817 55.974-73.079 96.155-135.846 96.155s-116.029-40.181-135.846-96.155h-37.225c-23.898 0-43.268-19.369-43.268-43.268s19.369-43.268 43.268-43.268z" />
<glyph unicode="&#xe931;" glyph-name="parameter-range" d="M495.152 431.552h-365.672c-8.832 0-16 7.168-16 16s7.168 16 16 16h365.672c8.832 0 16-7.168 16-16s-7.168-16-16-16zM895.256 431.552h-194.016c-8.832 0-16 7.168-16 16s7.168 16 16 16h194.016c8.832 0 16-7.168 16-16s-7.16-16-16-16zM388.024 187.128h-258.544c-8.832 0-16 7.168-16 16s7.168 16 16 16h258.544c8.832 0 16-7.168 16-16s-7.168-16-16-16zM895.256 187.128h-297.064c-8.832 0-16 7.168-16 16s7.168 16 16 16h297.064c8.832 0 16-7.168 16-16s-7.16-16-16-16zM280.104 675.984h-150.624c-8.832 0-16 7.168-16 16s7.168 16 16 16h150.624c8.832 0 16-7.168 16-16s-7.168-16-16-16zM895.256 675.984h-409.048c-8.832 0-16 7.168-16 16s7.168 16 16 16h409.048c8.832 0 16-7.168 16-16s-7.16-16-16-16zM340.928 615.168c-42.36 0-76.832 34.472-76.832 76.832s34.472 76.824 76.832 76.824 76.832-34.464 76.832-76.824c0-42.368-34.472-76.832-76.832-76.832zM340.928 736.824c-24.72 0-44.832-20.112-44.832-44.824 0-24.72 20.112-44.832 44.832-44.832s44.832 20.112 44.832 44.832c0 24.712-20.112 44.824-44.832 44.824zM448.848 126.28c-42.36 0-76.832 34.472-76.832 76.84 0 42.36 34.472 76.832 76.832 76.832 42.376 0 76.84-34.472 76.84-76.832 0.008-42.368-34.464-76.84-76.84-76.84zM448.848 247.952c-24.72 0-44.832-20.112-44.832-44.832 0-24.736 20.112-44.84 44.832-44.84 24.728 0 44.84 20.112 44.84 44.84 0.008 24.72-20.112 44.832-44.84 44.832zM556.008 370.712c-42.384 0-76.856 34.48-76.856 76.84s34.48 76.832 76.856 76.832c42.352 0 76.816-34.464 76.816-76.832s-34.464-76.84-76.816-76.84zM556.008 492.384c-24.736 0-44.856-20.112-44.856-44.832 0-24.728 20.128-44.84 44.856-44.84 24.712 0 44.816 20.12 44.816 44.84s-20.104 44.832-44.816 44.832z" />
<glyph unicode="&#xe932;" glyph-name="my-account-user" d="M0-64h1024v256c0 0 0 128-128 128-64 0-640 0-768 0s-128-128-128-128v-256zM768 640c0-141.385-114.615-256-256-256s-256 114.615-256 256c0 141.385 114.615 256 256 256s256-114.615 256-256z" />
<glyph unicode="&#xe933;" glyph-name="add-user-noti" d="M1024 224c-0.064 159.136-128.928 288-288 288-0.8 0-1.568-0.096-2.368-0.128 21.824 37.696 34.368 81.44 34.368 128.128 0 141.376-114.624 256-256 256s-256-114.624-256-256c0-136.32 106.624-247.424 240.992-255.264-13.408-19.904-24.096-41.728-32.256-64.736h-336.736c-128 0-128-128-128-128v-256h1024v256c0 0 0 25.376 0 32zM956.256 224c-0.288-121.568-98.688-219.968-220.256-220.256-121.632 0.288-220.032 98.688-220.32 220.256 0.288 121.632 98.688 220.032 220.32 220.288 121.568-0.256 219.968-98.656 220.256-220.288zM896 256h-127.936v128h-64.064v-128h-128v-64h128v-128h64.064v128h127.936z" />
<glyph unicode="&#xe934;" glyph-name="edit-user-noti" d="M1024 224c-0.064 159.136-128.928 288-288 288-0.8 0-1.568-0.096-2.368-0.128 21.824 37.696 34.368 81.44 34.368 128.128 0 141.376-114.624 256-256 256s-256-114.624-256-256c0-136.32 106.624-247.424 240.992-255.264-13.408-19.904-24.096-41.728-32.256-64.736h-336.736c-128 0-128-128-128-128v-256h1024v256c0 0 0 25.376 0 32zM956.256 224c-0.288-121.568-98.688-219.968-220.256-220.256-121.632 0.288-220.032 98.688-220.32 220.256 0.288 121.632 98.688 220.032 220.32 220.288 121.568-0.256 219.968-98.656 220.256-220.288zM704 96h-96v96zM896.012 288.017l-159.997-159.997-96.007 96.007 159.997 159.997 96.007-96.007z" />
<glyph unicode="&#xe935;" glyph-name="user-box" d="M204.8 960c-113.459 0-204.8-91.341-204.8-204.8v-614.4c0-113.459 91.341-204.8 204.8-204.8h614.4c113.459 0 204.8 91.341 204.8 204.8v614.4c0 113.459-91.341 204.8-204.8 204.8h-614.4zM512 820.38c91.193 0 165.12-73.927 165.12-165.12v0c0-91.193-73.927-165.12-165.12-165.12v0c-91.193 0-165.12 73.927-165.12 165.12v0c0 91.193 73.927 165.12 165.12 165.12v0zM632.5 478.040c92.622-73.935 165.42-119.531 165.42-402.42h-571.84c0 277.681 72.737 328.426 165.32 402.4 37.809-15.788 78.945-24.008 120.6-24.1 41.62 0.111 82.725 8.339 120.5 24.12z" />
<glyph unicode="&#xe936;" glyph-name="add-user-button" d="M962.745 334.222h-95.189v95.189c0 32.811-26.425 61.255-59.236 61.255h-23.765c-32.796 0-59.221-28.444-59.221-61.255v-95.189h-95.204c-32.796 0-61.241-26.411-61.241-59.221v-23.765c0-32.796 28.444-59.236 61.241-59.236h95.204v-95.189c0-32.811 26.425-61.255 59.221-61.255h23.765c32.811 0 59.236 28.444 59.236 61.255v95.189h95.189c32.811 0 61.255 26.439 61.255 59.236v23.765c0 32.811-28.444 59.221-61.255 59.221zM640 668.444c0-106.039-85.961-192-192-192s-192 85.961-192 192c0 106.039 85.961 192 192 192s192-85.961 192-192zM654.222 120.889h-24.092c-72.974 0-132.352 58.468-132.352 130.347v23.765c0 71.865 59.378 130.332 132.352 130.332h24.092v14.222h-412.516c-111.118-77.312-198.201-215.211-241.024-384h668.444c-9.472 18.332-14.905 39.154-14.905 61.255v24.078z" />
<glyph unicode="&#xe944;" glyph-name="address-book" d="M192 960v-1024h768v1024h-768zM576 703.67c70.51 0 127.67-57.16 127.67-127.67s-57.16-127.67-127.67-127.67-127.67 57.16-127.67 127.67 57.16 127.67 127.67 127.67v0zM768 192h-384v64c0 70.696 57.306 128 128 128v0h128c70.696 0 128-57.304 128-128v-64zM64 896h96v-192h-96v192zM64 640h96v-192h-96v192zM64 384h96v-192h-96v192zM64 128h96v-192h-96v192z" />
<glyph unicode="&#xe94e;" glyph-name="clock" d="M658.744 210.744l-210.744 210.746v282.51h128v-229.49l173.256-173.254zM512 960c-282.77 0-512-229.23-512-512s229.23-512 512-512 512 229.23 512 512-229.23 512-512 512zM512 64c-212.078 0-384 171.922-384 384s171.922 384 384 384c212.078 0 384-171.922 384-384s-171.922-384-384-384z" />
<glyph unicode="&#xe953;" glyph-name="calendar" d="M320 576h128v-128h-128zM512 576h128v-128h-128zM704 576h128v-128h-128zM128 192h128v-128h-128zM320 192h128v-128h-128zM512 192h128v-128h-128zM320 384h128v-128h-128zM512 384h128v-128h-128zM704 384h128v-128h-128zM128 384h128v-128h-128zM832 960v-64h-128v64h-448v-64h-128v64h-128v-1024h960v1024h-128zM896 0h-832v704h832v-704z" />
<glyph unicode="&#xe971;" glyph-name="user" d="M576 253.388v52.78c70.498 39.728 128 138.772 128 237.832 0 159.058 0 288-192 288s-192-128.942-192-288c0-99.060 57.502-198.104 128-237.832v-52.78c-217.102-17.748-384-124.42-384-253.388h896c0 128.968-166.898 235.64-384 253.388z" />
<glyph unicode="&#xe973;" glyph-name="user-plus" d="M384 224c0 151.234 95.874 280.486 230.032 330.2 16.28 36.538 25.968 77.164 25.968 117.8 0 159.058 0 288-192 288s-192-128.942-192-288c0-99.060 57.502-198.104 128-237.832v-52.78c-217.102-17.748-384-124.42-384-253.388h397.306c-8.664 30.53-13.306 62.732-13.306 96zM736 512c-159.058 0-288-128.942-288-288s128.942-288 288-288c159.056 0 288 128.942 288 288s-128.942 288-288 288zM896 192h-128v-128h-64v128h-128v64h128v128h64v-128h128v-64z" />
<glyph unicode="&#xe986;" glyph-name="search" d="M992.262 88.604l-242.552 206.294c-25.074 22.566-51.89 32.926-73.552 31.926 57.256 67.068 91.842 154.078 91.842 249.176 0 212.078-171.922 384-384 384-212.076 0-384-171.922-384-384s171.922-384 384-384c95.098 0 182.108 34.586 249.176 91.844-1-21.662 9.36-48.478 31.926-73.552l206.294-242.552c35.322-39.246 93.022-42.554 128.22-7.356s31.892 92.898-7.354 128.22zM384 320c-141.384 0-256 114.616-256 256s114.616 256 256 256 256-114.616 256-256-114.614-256-256-256z" />
<glyph unicode="&#xe987;" glyph-name="zoom-in" d="M992.262 88.604l-242.552 206.294c-25.074 22.566-51.89 32.926-73.552 31.926 57.256 67.068 91.842 154.078 91.842 249.176 0 212.078-171.922 384-384 384-212.076 0-384-171.922-384-384s171.922-384 384-384c95.098 0 182.108 34.586 249.176 91.844-1-21.662 9.36-48.478 31.926-73.552l206.294-242.552c35.322-39.246 93.022-42.554 128.22-7.356s31.892 92.898-7.354 128.22zM384 320c-141.384 0-256 114.616-256 256s114.616 256 256 256 256-114.616 256-256-114.614-256-256-256zM448 768h-128v-128h-128v-128h128v-128h128v128h128v128h-128z" />
<glyph unicode="&#xe988;" glyph-name="zoom-out" d="M992.262 88.604l-242.552 206.294c-25.074 22.566-51.89 32.926-73.552 31.926 57.256 67.068 91.842 154.078 91.842 249.176 0 212.078-171.922 384-384 384-212.076 0-384-171.922-384-384s171.922-384 384-384c95.098 0 182.108 34.586 249.176 91.844-1-21.662 9.36-48.478 31.926-73.552l206.294-242.552c35.322-39.246 93.022-42.554 128.22-7.356s31.892 92.898-7.354 128.22zM384 320c-141.384 0-256 114.616-256 256s114.616 256 256 256 256-114.616 256-256-114.614-256-256-256zM192 640h384v-128h-384z" />
<glyph unicode="&#xe98d;" glyph-name="key" d="M704 960c-176.73 0-320-143.268-320-320 0-20.026 1.858-39.616 5.376-58.624l-389.376-389.376v-192c0-35.346 28.654-64 64-64h64v64h128v128h128v128h128l83.042 83.042c34.010-12.316 70.696-19.042 108.958-19.042 176.73 0 320 143.268 320 320s-143.27 320-320 320zM799.874 639.874c-53.020 0-96 42.98-96 96s42.98 96 96 96 96-42.98 96-96-42.98-96-96-96z" />
<glyph unicode="&#xe98f;" glyph-name="lock" d="M592 512h-16v192c0 105.87-86.13 192-192 192h-128c-105.87 0-192-86.13-192-192v-192h-16c-26.4 0-48-21.6-48-48v-480c0-26.4 21.6-48 48-48h544c26.4 0 48 21.6 48 48v480c0 26.4-21.6 48-48 48zM192 704c0 35.29 28.71 64 64 64h128c35.29 0 64-28.71 64-64v-192h-256v192z" />
<glyph unicode="&#xe991;" glyph-name="wrench" d="M1002.934 142.124l-460.552 394.76c21.448 40.298 33.618 86.282 33.618 135.116 0 159.058-128.942 288-288 288-29.094 0-57.172-4.332-83.646-12.354l166.39-166.39c24.89-24.89 24.89-65.62 0-90.51l-101.49-101.49c-24.89-24.89-65.62-24.89-90.51 0l-166.39 166.39c-8.022-26.474-12.354-54.552-12.354-83.646 0-159.058 128.942-288 288-288 48.834 0 94.818 12.17 135.116 33.62l394.76-460.552c22.908-26.724 62.016-28.226 86.904-3.338l101.492 101.492c24.888 24.888 23.386 63.994-3.338 86.902z" />
<glyph unicode="&#xe994;" glyph-name="cog" d="M933.79 349.75c-53.726 93.054-21.416 212.304 72.152 266.488l-100.626 174.292c-28.75-16.854-62.176-26.518-97.846-26.518-107.536 0-194.708 87.746-194.708 195.99h-201.258c0.266-33.41-8.074-67.282-25.958-98.252-53.724-93.056-173.156-124.702-266.862-70.758l-100.624-174.292c28.97-16.472 54.050-40.588 71.886-71.478 53.638-92.908 21.512-211.92-71.708-266.224l100.626-174.292c28.65 16.696 61.916 26.254 97.4 26.254 107.196 0 194.144-87.192 194.7-194.958h201.254c-0.086 33.074 8.272 66.57 25.966 97.218 53.636 92.906 172.776 124.594 266.414 71.012l100.626 174.29c-28.78 16.466-53.692 40.498-71.434 71.228zM512 240.668c-114.508 0-207.336 92.824-207.336 207.334 0 114.508 92.826 207.334 207.336 207.334 114.508 0 207.332-92.826 207.332-207.334-0.002-114.51-92.824-207.334-207.332-207.334z" />
<glyph unicode="&#xe99b;" glyph-name="stats-dots" d="M128 64h896v-128h-1024v1024h128zM288 128c-53.020 0-96 42.98-96 96s42.98 96 96 96c2.828 0 5.622-0.148 8.388-0.386l103.192 171.986c-9.84 15.070-15.58 33.062-15.58 52.402 0 53.020 42.98 96 96 96s96-42.98 96-96c0-19.342-5.74-37.332-15.58-52.402l103.192-171.986c2.766 0.238 5.56 0.386 8.388 0.386 2.136 0 4.248-0.094 6.35-0.23l170.356 298.122c-10.536 15.408-16.706 34.036-16.706 54.11 0 53.020 42.98 96 96 96s96-42.98 96-96c0-53.020-42.98-96-96-96-2.14 0-4.248 0.094-6.35 0.232l-170.356-298.124c10.536-15.406 16.706-34.036 16.706-54.11 0-53.020-42.98-96-96-96s-96 42.98-96 96c0 19.34 5.74 37.332 15.578 52.402l-103.19 171.984c-2.766-0.238-5.56-0.386-8.388-0.386s-5.622 0.146-8.388 0.386l-103.192-171.986c9.84-15.068 15.58-33.060 15.58-52.4 0-53.020-42.98-96-96-96z" />
<glyph unicode="&#xe99c;" glyph-name="stats-bars" d="M0 128h1024v-128h-1024zM128 384h128v-192h-128zM320 640h128v-448h-128zM512 448h128v-256h-128zM704 832h128v-640h-128z" />
<glyph unicode="&#xe9ac;" glyph-name="bin" d="M128 640v-640c0-35.2 28.8-64 64-64h576c35.2 0 64 28.8 64 64v640h-704zM320 64h-64v448h64v-448zM448 64h-64v448h64v-448zM576 64h-64v448h64v-448zM704 64h-64v448h64v-448zM848 832h-208v80c0 26.4-21.6 48-48 48h-224c-26.4 0-48-21.6-48-48v-80h-208c-26.4 0-48-21.6-48-48v-80h832v80c0 26.4-21.6 48-48 48zM576 832h-192v63.198h192v-63.198z" />
<glyph unicode="&#xe9b5;" glyph-name="power" d="M384 960l-384-512h384l-256-512 896 640h-512l384 384z" />
<glyph unicode="&#xe9bd;" glyph-name="menu" d="M64 768h896v-192h-896zM64 512h896v-192h-896zM64 256h896v-192h-896z" />
<glyph unicode="&#xe9e5;" glyph-name="sad" d="M512-64c282.77 0 512 229.23 512 512s-229.23 512-512 512-512-229.23-512-512 229.23-512 512-512zM512 864c229.75 0 416-186.25 416-416s-186.25-416-416-416-416 186.25-416 416 186.25 416 416 416zM256 640c0 35.346 28.654 64 64 64s64-28.654 64-64c0-35.346-28.654-64-64-64s-64 28.654-64 64zM640 640c0 35.346 28.654 64 64 64s64-28.654 64-64c0-35.346-28.654-64-64-64s-64 28.654-64 64zM319.902 179.26l-82.328 49.396c55.962 93.070 157.916 155.344 274.426 155.344 116.508 0 218.462-62.274 274.426-155.344l-82.328-49.396c-39.174 65.148-110.542 108.74-192.098 108.74-81.558 0-152.924-43.592-192.098-108.74z" />
<glyph unicode="&#xe9e6;" glyph-name="sad2" d="M512 960c-282.77 0-512-229.23-512-512s229.23-512 512-512 512 229.23 512 512-229.23 512-512 512zM704 704c35.346 0 64-28.654 64-64s-28.654-64-64-64-64 28.654-64 64 28.654 64 64 64zM320 704c35.346 0 64-28.654 64-64s-28.654-64-64-64-64 28.654-64 64 28.654 64 64 64zM704.098 179.26c-39.174 65.148-110.544 108.74-192.098 108.74-81.556 0-152.924-43.592-192.098-108.74l-82.328 49.396c55.96 93.070 157.916 155.344 274.426 155.344 116.508 0 218.464-62.274 274.426-155.344l-82.328-49.396z" />
<glyph unicode="&#xea07;" glyph-name="warning" d="M512 867.226l429.102-855.226h-858.206l429.104 855.226zM512 960c-22.070 0-44.14-14.882-60.884-44.648l-437.074-871.112c-33.486-59.532-5-108.24 63.304-108.24h869.308c68.3 0 96.792 48.708 63.3 108.24h0.002l-437.074 871.112c-16.742 29.766-38.812 44.648-60.882 44.648v0zM576 128c0-35.346-28.654-64-64-64s-64 28.654-64 64c0 35.346 28.654 64 64 64s64-28.654 64-64zM512 256c-35.346 0-64 28.654-64 64v192c0 35.346 28.654 64 64 64s64-28.654 64-64v-192c0-35.346-28.654-64-64-64z" />
<glyph unicode="&#xea0a;" glyph-name="plus" d="M992 576h-352v352c0 17.672-14.328 32-32 32h-192c-17.672 0-32-14.328-32-32v-352h-352c-17.672 0-32-14.328-32-32v-192c0-17.672 14.328-32 32-32h352v-352c0-17.672 14.328-32 32-32h192c17.672 0 32 14.328 32 32v352h352c17.672 0 32 14.328 32 32v192c0 17.672-14.328 32-32 32z" />
<glyph unicode="&#xea0f;" glyph-name="cross" d="M1014.662 137.34c-0.004 0.004-0.008 0.008-0.012 0.010l-310.644 310.65 310.644 310.65c0.004 0.004 0.008 0.006 0.012 0.010 3.344 3.346 5.762 7.254 7.312 11.416 4.246 11.376 1.824 24.682-7.324 33.83l-146.746 146.746c-9.148 9.146-22.45 11.566-33.828 7.32-4.16-1.55-8.070-3.968-11.418-7.31 0-0.004-0.004-0.006-0.008-0.010l-310.648-310.652-310.648 310.65c-0.004 0.004-0.006 0.006-0.010 0.010-3.346 3.342-7.254 5.76-11.414 7.31-11.38 4.248-24.682 1.826-33.83-7.32l-146.748-146.748c-9.148-9.148-11.568-22.452-7.322-33.828 1.552-4.16 3.97-8.072 7.312-11.416 0.004-0.002 0.006-0.006 0.010-0.010l310.65-310.648-310.65-310.652c-0.002-0.004-0.006-0.006-0.008-0.010-3.342-3.346-5.76-7.254-7.314-11.414-4.248-11.376-1.826-24.682 7.322-33.83l146.748-146.746c9.15-9.148 22.452-11.568 33.83-7.322 4.16 1.552 8.070 3.97 11.416 7.312 0.002 0.004 0.006 0.006 0.010 0.010l310.648 310.65 310.648-310.65c0.004-0.002 0.008-0.006 0.012-0.008 3.348-3.344 7.254-5.762 11.414-7.314 11.378-4.246 24.684-1.826 33.828 7.322l146.746 146.748c9.148 9.148 11.57 22.454 7.324 33.83-1.552 4.16-3.97 8.068-7.314 11.414z" />
<glyph unicode="&#xea13;" glyph-name="enter" d="M384 448h-320v128h320v128l192-192-192-192zM1024 960v-832l-384-192v192h-384v256h64v-192h320v576l256 128h-576v-256h-64v320z" />
<glyph unicode="&#xea14;" glyph-name="exit" d="M768 320v128h-320v128h320v128l192-192zM704 384v-256h-320v-192l-384 192v832h704v-320h-64v256h-512l256-128v-576h256v192z" />
<glyph unicode="&#xea31;" glyph-name="arrow-up-left" d="M0 224l256 256 544-544 224 224-544 544 255.998 256h-735.998v-736z" />
<glyph unicode="&#xea32;" glyph-name="arrow-up" d="M512 928l-480-480h288v-512h384v512h288z" />
<glyph unicode="&#xea33;" glyph-name="arrow-up-right" d="M288 960l256-256-544-544 224-224 544 544 256-255.998v735.998h-736z" />
<glyph unicode="&#xea34;" glyph-name="arrow-right" d="M992 448l-480 480v-288h-512v-384h512v-288z" />
<glyph unicode="&#xea35;" glyph-name="arrow-down-right" d="M1024 672l-256-256-544 544-224-224 544-544-255.998-256h735.998v736z" />
<glyph unicode="&#xea36;" glyph-name="arrow-down" d="M512-32l480 480h-288v512h-384v-512h-288z" />
<glyph unicode="&#xea37;" glyph-name="arrow-down-left" d="M736-64l-256 256 544 544-224 224-544-544-256 255.998v-735.998h736z" />
<glyph unicode="&#xea38;" glyph-name="arrow-left" d="M32 448l480-480v288h512v384h-512v288z" />
<glyph unicode="&#xea39;" glyph-name="arrow-up-left2" d="M877.254 173.254l-530.744 530.746h229.49c35.346 0 64 28.654 64 64s-28.654 64-64 64h-384c-25.886 0-49.222-15.592-59.128-39.508-3.282-7.924-4.84-16.242-4.838-24.492h-0.034v-384c0-35.346 28.654-64 64-64s64 28.654 64 64v229.49l530.746-530.744c12.496-12.498 28.876-18.746 45.254-18.746s32.758 6.248 45.254 18.746c24.994 24.992 24.994 65.516 0 90.508z" />
<glyph unicode="&#xea3a;" glyph-name="arrow-up2" d="M877.254 557.254l-320 320c-24.992 24.994-65.514 24.994-90.508 0l-320-320c-24.994-24.994-24.994-65.516 0-90.51 24.994-24.996 65.516-24.996 90.51 0l210.744 210.746v-613.49c0-35.346 28.654-64 64-64s64 28.654 64 64v613.49l210.746-210.746c12.496-12.496 28.876-18.744 45.254-18.744s32.758 6.248 45.254 18.746c24.994 24.994 24.994 65.514 0 90.508z" />
<glyph unicode="&#xea3b;" glyph-name="arrow-up-right2" d="M237.254 82.746l530.746 530.744v-229.49c0-35.346 28.654-64 64-64s64 28.654 64 64v384c0 25.884-15.594 49.222-39.508 59.126-7.924 3.284-16.242 4.84-24.492 4.838v0.036h-384c-35.346 0-64-28.654-64-64 0-35.348 28.654-64 64-64h229.49l-530.744-530.746c-12.498-12.496-18.746-28.876-18.746-45.254s6.248-32.758 18.746-45.254c24.992-24.994 65.516-24.994 90.508 0z" />
<glyph unicode="&#xea3c;" glyph-name="arrow-right2" d="M621.254 82.746l320 320c24.994 24.992 24.994 65.516 0 90.51l-320 320c-24.994 24.992-65.516 24.992-90.51 0-24.994-24.994-24.994-65.516 0-90.51l210.746-210.746h-613.49c-35.346 0-64-28.654-64-64s28.654-64 64-64h613.49l-210.746-210.746c-12.496-12.496-18.744-28.876-18.744-45.254s6.248-32.758 18.744-45.254c24.994-24.994 65.516-24.994 90.51 0z" />
<glyph unicode="&#xea3d;" glyph-name="arrow-down-right2" d="M146.746 722.746l530.742-530.746h-229.488c-35.346 0-64-28.654-64-64s28.654-64 64-64h384c25.884 0 49.222 15.594 59.126 39.508 3.284 7.924 4.84 16.242 4.838 24.492h0.036v384c0 35.346-28.654 64-64 64-35.348 0-64-28.654-64-64v-229.49l-530.746 530.744c-12.496 12.498-28.874 18.746-45.254 18.746s-32.758-6.248-45.254-18.746c-24.994-24.992-24.994-65.516 0-90.508z" />
<glyph unicode="&#xea3e;" glyph-name="arrow-down2" d="M877.254 338.746l-320-320c-24.992-24.994-65.514-24.994-90.508 0l-320 320c-24.994 24.994-24.994 65.516 0 90.51 24.994 24.996 65.516 24.996 90.51 0l210.744-210.746v613.49c0 35.346 28.654 64 64 64s64-28.654 64-64v-613.49l210.746 210.746c12.496 12.496 28.876 18.744 45.254 18.744s32.758-6.248 45.254-18.746c24.994-24.994 24.994-65.514 0-90.508z" />
<glyph unicode="&#xea3f;" glyph-name="arrow-down-left2" d="M786.744 813.256l-530.744-530.744v229.49c0 35.346-28.654 64-64 64s-64-28.654-64-64v-384.002c0-25.886 15.592-49.222 39.508-59.128 7.924-3.282 16.242-4.84 24.492-4.836v-0.036l384 0.002c35.344 0 64 28.654 64 63.998 0 35.348-28.656 64-64 64h-229.49l530.744 530.746c12.496 12.496 18.746 28.876 18.746 45.256 0 16.376-6.25 32.758-18.746 45.254-24.992 24.992-65.518 24.992-90.51 0v0z" />
<glyph unicode="&#xea40;" glyph-name="arrow-left2" d="M402.746 82.746l-320 320c-24.994 24.992-24.994 65.516 0 90.51l320 320c24.994 24.992 65.516 24.992 90.51 0 24.994-24.994 24.994-65.516 0-90.51l-210.746-210.746h613.49c35.346 0 64-28.654 64-64s-28.654-64-64-64h-613.49l210.746-210.746c12.496-12.496 18.744-28.876 18.744-45.254s-6.248-32.758-18.744-45.254c-24.994-24.994-65.516-24.994-90.51 0z" />
<glyph unicode="&#xea41;" glyph-name="circle-up" d="M0 448c0-282.77 229.23-512 512-512s512 229.23 512 512-229.23 512-512 512-512-229.23-512-512zM928 448c0-229.75-186.25-416-416-416s-416 186.25-416 416 186.25 416 416 416 416-186.25 416-416zM706.744 290.744l90.512 90.512-285.256 285.254-285.254-285.256 90.508-90.508 194.746 194.744z" />
<glyph unicode="&#xea42;" glyph-name="circle-right" d="M512 960c-282.77 0-512-229.23-512-512s229.23-512 512-512 512 229.23 512 512-229.23 512-512 512zM512 32c-229.75 0-416 186.25-416 416s186.25 416 416 416 416-186.25 416-416-186.25-416-416-416zM354.744 253.256l90.512-90.512 285.254 285.256-285.256 285.254-90.508-90.508 194.744-194.746z" />
<glyph unicode="&#xea43;" glyph-name="circle-down" d="M1024 448c0 282.77-229.23 512-512 512s-512-229.23-512-512 229.23-512 512-512 512 229.23 512 512zM96 448c0 229.75 186.25 416 416 416s416-186.25 416-416-186.25-416-416-416-416 186.25-416 416zM317.256 605.256l-90.512-90.512 285.256-285.254 285.254 285.256-90.508 90.508-194.746-194.744z" />
<glyph unicode="&#xea44;" glyph-name="circle-left" d="M512-64c282.77 0 512 229.23 512 512s-229.23 512-512 512-512-229.23-512-512 229.23-512 512-512zM512 864c229.75 0 416-186.25 416-416s-186.25-416-416-416-416 186.25-416 416 186.25 416 416 416zM669.256 642.744l-90.512 90.512-285.254-285.256 285.256-285.254 90.508 90.508-194.744 194.746z" />
<glyph unicode="&#xea45;" glyph-name="tab" d="M960 960h64v-512h-64v512zM0 448h64v-512h-64v512zM320 256h704v-128h-704v-160l-224 224 224 224v-160zM704 640h-704v128h704v160l224-224-224-224z" />
<glyph unicode="&#xea52;" glyph-name="checkbox-checked" d="M896 960h-768c-70.4 0-128-57.6-128-128v-768c0-70.4 57.6-128 128-128h768c70.4 0 128 57.6 128 128v768c0 70.4-57.6 128-128 128zM448 165.49l-237.254 237.256 90.51 90.508 146.744-146.744 306.746 306.746 90.508-90.51-397.254-397.256z" />
<glyph unicode="&#xea53;" glyph-name="checkbox-unchecked" d="M896 960h-768c-70.4 0-128-57.6-128-128v-768c0-70.4 57.6-128 128-128h768c70.4 0 128 57.6 128 128v768c0 70.4-57.6 128-128 128zM896 64h-768v768h768v-768z" />
<glyph unicode="&#xea54;" glyph-name="radio-checked" d="M512 960c-282.77 0-512-229.23-512-512s229.23-512 512-512 512 229.23 512 512-229.23 512-512 512zM512 64c-212.078 0-384 171.922-384 384s171.922 384 384 384c212.078 0 384-171.922 384-384s-171.922-384-384-384zM320 448c0 106.039 85.961 192 192 192s192-85.961 192-192c0-106.039-85.961-192-192-192s-192 85.961-192 192z" />
<glyph unicode="&#xea55;" glyph-name="radio-checked2" d="M512 960c-282.77 0-512-229.23-512-512s229.23-512 512-512 512 229.23 512 512-229.23 512-512 512zM512 320c-70.692 0-128 57.306-128 128 0 70.692 57.308 128 128 128 70.694 0 128-57.308 128-128 0-70.694-57.306-128-128-128z" />
<glyph unicode="&#xea56;" glyph-name="radio-unchecked" d="M512 960c-282.77 0-512-229.23-512-512s229.23-512 512-512 512 229.23 512 512-229.23 512-512 512zM512 64c-212.078 0-384 171.922-384 384s171.922 384 384 384c212.078 0 384-171.922 384-384s-171.922-384-384-384z" />
<glyph unicode="&#xea7d;" glyph-name="share" d="M256 320c0 0 58.824 192 384 192v-192l384 256-384 256v-192c-256 0-384-159.672-384-320zM704 192h-576v384h125.876c10.094 11.918 20.912 23.334 32.488 34.18 43.964 41.19 96.562 72.652 156.114 93.82h-442.478v-640h832v268.624l-128-85.334v-55.29z" />
<glyph unicode="&#xea84;" glyph-name="mail2" d="M853.342 960h-682.656c-93.874 0-170.686-76.81-170.686-170.69v-682.622c0-93.938 76.812-170.688 170.686-170.688h682.656c93.876 0 170.658 76.75 170.658 170.69v682.62c0 93.88-76.782 170.69-170.658 170.69zM853.342 832c7.988 0 15.546-2.334 22.020-6.342l-363.362-300.404-363.354 300.4c6.478 4.010 14.044 6.346 22.040 6.346h682.656zM170.686 64c-1.924 0-3.82 0.146-5.684 0.408l225.626 312.966-29.256 29.254-233.372-233.37v611.138l384-464.396 384 464.394v-611.136l-233.372 233.37-29.254-29.254 225.628-312.968c-1.858-0.26-3.746-0.406-5.662-0.406h-682.654z" />
<glyph unicode="&#xeadf;" glyph-name="file-pdf" d="M842.012 370.52c-13.648 13.446-43.914 20.566-89.972 21.172-31.178 0.344-68.702-2.402-108.17-7.928-17.674 10.198-35.892 21.294-50.188 34.658-38.462 35.916-70.568 85.772-90.576 140.594 1.304 5.12 2.414 9.62 3.448 14.212 0 0 21.666 123.060 15.932 164.666-0.792 5.706-1.276 7.362-2.808 11.796l-1.882 4.834c-5.894 13.592-17.448 27.994-35.564 27.208l-10.916 0.344c-20.202 0-36.664-10.332-40.986-25.774-13.138-48.434 0.418-120.892 24.98-214.738l-6.288-15.286c-17.588-42.876-39.63-86.060-59.078-124.158l-2.528-4.954c-20.46-40.040-39.026-74.028-55.856-102.822l-17.376-9.188c-1.264-0.668-31.044-16.418-38.028-20.644-59.256-35.38-98.524-75.542-105.038-107.416-2.072-10.17-0.53-23.186 10.014-29.212l16.806-8.458c7.292-3.652 14.978-5.502 22.854-5.502 42.206 0 91.202 52.572 158.698 170.366 77.93 25.37 166.652 46.458 244.412 58.090 59.258-33.368 132.142-56.544 178.142-56.544 8.168 0 15.212 0.78 20.932 2.294 8.822 2.336 16.258 7.368 20.792 14.194 8.926 13.432 10.734 31.932 8.312 50.876-0.72 5.622-5.21 12.574-10.068 17.32zM211.646 145.952c7.698 21.042 38.16 62.644 83.206 99.556 2.832 2.296 9.808 8.832 16.194 14.902-47.104-75.124-78.648-105.066-99.4-114.458zM478.434 760.314c13.566 0 21.284-34.194 21.924-66.254s-6.858-54.56-16.158-71.208c-7.702 24.648-11.426 63.5-11.426 88.904 0 0-0.566 48.558 5.66 48.558v0zM398.852 322.506c9.45 16.916 19.282 34.756 29.33 53.678 24.492 46.316 39.958 82.556 51.478 112.346 22.91-41.684 51.444-77.12 84.984-105.512 4.186-3.542 8.62-7.102 13.276-10.65-68.21-13.496-127.164-29.91-179.068-49.862v0zM828.902 326.348c-4.152-2.598-16.052-4.1-23.708-4.1-24.708 0-55.272 11.294-98.126 29.666 16.468 1.218 31.562 1.838 45.102 1.838 24.782 0 32.12 0.108 56.35-6.072 24.228-6.18 24.538-18.734 20.382-21.332v0zM917.806 730.924c-22.21 30.292-53.174 65.7-87.178 99.704s-69.412 64.964-99.704 87.178c-51.574 37.82-76.592 42.194-90.924 42.194h-496c-44.112 0-80-35.888-80-80v-864c0-44.112 35.886-80 80-80h736c44.112 0 80 35.888 80 80v624c0 14.332-4.372 39.35-42.194 90.924v0zM785.374 785.374c30.7-30.7 54.8-58.398 72.58-81.374h-153.954v153.946c22.982-17.78 50.678-41.878 81.374-72.572v0zM896 16c0-8.672-7.328-16-16-16h-736c-8.672 0-16 7.328-16 16v864c0 8.672 7.328 16 16 16 0 0 495.956 0.002 496 0v-224c0-17.672 14.324-32 32-32h224v-624z" />
<glyph unicode="&#xeae9;" glyph-name="svg" d="M928 544c-28.428 0-53.958-12.366-71.536-32h-189.956l134.318 134.318c26.312-1.456 53.11 7.854 73.21 27.956 37.49 37.49 37.49 98.274 0 135.764s-98.274 37.49-135.766 0c-20.102-20.102-29.41-46.898-27.956-73.21l-134.314-134.318v189.954c19.634 17.578 32 43.108 32 71.536 0 53.020-42.98 96-96 96s-96-42.98-96-96c0-28.428 12.366-53.958 32-71.536v-189.954l-134.318 134.318c1.454 26.312-7.856 53.11-27.958 73.21-37.49 37.49-98.274 37.49-135.764 0-37.49-37.492-37.49-98.274 0-135.764 20.102-20.102 46.898-29.412 73.212-27.956l134.32-134.318h-189.956c-17.578 19.634-43.108 32-71.536 32-53.020 0-96-42.98-96-96s42.98-96 96-96c28.428 0 53.958 12.366 71.536 32h189.956l-134.318-134.318c-26.314 1.456-53.11-7.854-73.212-27.956-37.49-37.492-37.49-98.276 0-135.766 37.492-37.49 98.274-37.49 135.764 0 20.102 20.102 29.412 46.898 27.958 73.21l134.316 134.32v-189.956c-19.634-17.576-32-43.108-32-71.536 0-53.020 42.98-96 96-96s96 42.98 96 96c0 28.428-12.366 53.958-32 71.536v189.956l134.318-134.318c-1.456-26.312 7.854-53.11 27.956-73.21 37.492-37.49 98.276-37.49 135.766 0s37.49 98.274 0 135.766c-20.102 20.102-46.898 29.41-73.21 27.956l-134.32 134.316h189.956c17.576-19.634 43.108-32 71.536-32 53.020 0 96 42.98 96 96s-42.982 96-96.002 96z" />
</font>
</defs>
</svg>
